<?xml version="1.0" encoding="UTF-8" standalone="no"?>
<!-- Created with Inkscape (http://www.inkscape.org/) -->

<svg
   xmlns:dc="http://purl.org/dc/elements/1.1/"
   xmlns:cc="http://creativecommons.org/ns#"
   xmlns:rdf="http://www.w3.org/1999/02/22-rdf-syntax-ns#"
   xmlns:svg="http://www.w3.org/2000/svg"
   xmlns="http://www.w3.org/2000/svg"
   xmlns:sodipodi="http://sodipodi.sourceforge.net/DTD/sodipodi-0.dtd"
   xmlns:inkscape="http://www.inkscape.org/namespaces/inkscape"
   version="1.1"
   id="svg3713"
   width="31.814096"
   height="31.597691"
   viewBox="0 0 31.814096 31.597691"
   sodipodi:docname="Information.svg"
   inkscape:version="0.92.4 (5da689c313, 2019-01-14)">
  <metadata
     id="metadata3719">
    <rdf:RDF>
      <cc:Work
         rdf:about="">
        <dc:format>image/svg+xml</dc:format>
        <dc:type
           rdf:resource="http://purl.org/dc/dcmitype/StillImage" />
        <dc:title></dc:title>
      </cc:Work>
    </rdf:RDF>
  </metadata>
  <defs
     id="defs3717" />
  <sodipodi:namedview
     pagecolor="#ffffff"
     bordercolor="#666666"
     borderopacity="1"
     objecttolerance="10"
     gridtolerance="10"
     guidetolerance="10"
     inkscape:pageopacity="0"
     inkscape:pageshadow="2"
     inkscape:window-width="1045"
     inkscape:window-height="839"
     id="namedview3715"
     showgrid="false"
     fit-margin-top="0"
     fit-margin-left="0"
     fit-margin-right="0"
     fit-margin-bottom="0"
     inkscape:zoom="17.75"
     inkscape:cx="15.698728"
     inkscape:cy="15.768524"
     inkscape:window-x="592"
     inkscape:window-y="103"
     inkscape:window-maximized="0"
     inkscape:current-layer="svg3713" />
  <path
     style="fill:#0000ff"
     d="M 9.3181656,30.534273 C 5.1922166,28.662216 1.0881396,23.577246 0.29624195,19.356068 -2.4644435,4.6403499 14.689978,-5.8665098 25.97428,3.6286042 36.999102,12.905381 31.486818,30.425563 17.192234,31.541363 14.4105,31.758498 11.076508,31.332082 9.3181656,30.534273 Z M 25.555717,24.528921 C 35.811743,13.337659 21.377216,-3.3236117 8.7801936,5.1655199 c -4.081512,2.750531 -5.882968,6.0331561 -5.882968,10.7199851 0,4.711692 1.801681,7.96554 5.985085,10.809102 2.8425854,1.932175 4.3961814,2.28422 8.4234064,1.908746 4.098138,-0.382085 5.501274,-1.075053 8.25,-4.074432 z M 12.867742,18.885505 v -7 h 3 3 v 7 7 h -3 -3 z M 13.048191,8.6355049 c 0.23407,-1.64812 0.988307,-2.25 2.819551,-2.25 1.831244,0 2.585481,0.60188 2.819551,2.25 0.27316,1.9233541 -0.136171,2.2500001 -2.819551,2.2500001 -2.68338,0 -3.092711,-0.326646 -2.819551,-2.2500001 z"
     id="path3727"
     inkscape:connector-curvature="0" />
</svg>
