<?xml version="1.0" encoding="UTF-8" standalone="no"?>
<!-- Generator: Adobe Illustrator 20.0.0, SVG Export Plug-In . SVG Version: 6.00 Build 0)  -->

<svg
   xmlns:dc="http://purl.org/dc/elements/1.1/"
   xmlns:cc="http://creativecommons.org/ns#"
   xmlns:rdf="http://www.w3.org/1999/02/22-rdf-syntax-ns#"
   xmlns:svg="http://www.w3.org/2000/svg"
   xmlns="http://www.w3.org/2000/svg"
   xmlns:sodipodi="http://sodipodi.sourceforge.net/DTD/sodipodi-0.dtd"
   xmlns:inkscape="http://www.inkscape.org/namespaces/inkscape"
   version="1.1"
   id="Ebene_1"
   x="0px"
   y="0px"
   viewBox="0 0 32 32"
   style="enable-background:new 0 0 32 32;"
   xml:space="preserve"
   width="32px"
   height="32px"
   class="br-symbol-library"
   sodipodi:docname="OnGreen.svg"
   inkscape:version="0.92.4 (5da689c313, 2019-01-14)"><metadata
   id="metadata11"><rdf:RDF><cc:Work
       rdf:about=""><dc:format>image/svg+xml</dc:format><dc:type
         rdf:resource="http://purl.org/dc/dcmitype/StillImage" /></cc:Work></rdf:RDF></metadata><defs
   id="defs9" /><sodipodi:namedview
   pagecolor="#ffffff"
   bordercolor="#666666"
   borderopacity="1"
   objecttolerance="10"
   gridtolerance="10"
   guidetolerance="10"
   inkscape:pageopacity="0"
   inkscape:pageshadow="2"
   inkscape:window-width="640"
   inkscape:window-height="480"
   id="namedview7"
   showgrid="false"
   inkscape:zoom="29.40625"
   inkscape:cx="16"
   inkscape:cy="16"
   inkscape:current-layer="Ebene_1" />

<g
   id="Ebene_1_1_">
</g>
<path
   style="fill:#00ff00;stroke-width:0.03400638"
   d="M 15.25186,31.96647 C 13.802476,31.899435 12.128683,31.530838 10.695005,30.962975 6.8520318,29.44082 3.7708921,26.202224 2.414803,22.259628 1.2597764,18.901587 1.3717142,15.40788 2.7384385,12.1586 3.6826143,9.9138955 5.251973,7.8814311 7.2093518,6.3683544 7.9579787,5.789657 8.7890316,5.2840001 9.2596863,5.1208217 9.4871954,5.041943 9.8193285,5.0040059 9.9945699,5.0368813 10.154528,5.0668897 10.331321,5.2236018 10.4107,5.4057464 c 0.05713,0.131088 0.06377,0.2725756 0.07358,1.5675265 0.0069,0.9117551 -0.0025,1.5091589 -0.02622,1.6619145 -0.06963,0.4487781 -0.269761,0.733693 -0.6529739,0.9296044 -0.3200728,0.1636319 -0.9409823,0.7355262 -1.46769,1.3518302 -1.3437164,1.572291 -2.1309681,3.291606 -2.455294,5.36223 -0.086865,0.554583 -0.1057466,1.900599 -0.0353,2.516472 0.2149244,1.878952 0.8682267,3.512649 2.0239993,5.061369 0.3604805,0.483039 1.2980003,1.448159 1.77,1.822109 1.4212886,1.126039 3.0881156,1.85039 4.9139216,2.135437 0.407103,0.06356 0.616526,0.07433 1.445271,0.07433 0.828745,0 1.038168,-0.01077 1.445271,-0.07433 1.825921,-0.285065 3.495082,-1.010375 4.913921,-2.135274 0.47251,-0.374621 1.409741,-1.33953 1.77,-1.822272 1.147598,-1.537766 1.808497,-3.182604 2.020003,-5.027363 0.06075,-0.529897 0.0696,-1.627167 0.01732,-2.1473 C 25.898078,14.011737 24.632656,11.590839 22.596216,9.8516472 21.785519,9.1592835 21.720403,9.0875872 21.592447,8.74644 21.53439,8.5916542 21.527615,8.4428127 21.516887,7.0864833 c -0.01272,-1.6077942 9.03e-4,-1.784064 0.151707,-1.9632838 0.246527,-0.2929806 0.640707,-0.2726828 1.28571,0.066206 1.25,0.6567581 2.701106,1.8198906 3.751624,3.0071109 1.996761,2.2565956 3.197193,5.0278476 3.515781,8.1163426 0.06563,0.636268 0.05543,2.310127 -0.01783,2.924548 -0.407354,3.416569 -1.842969,6.349752 -4.260933,8.705747 -2.845779,2.772844 -6.663619,4.20959 -10.691089,4.023316 z"
   id="path13"
   inkscape:connector-curvature="0" /><path
   style="fill:#00ff00;stroke-width:0.03400638"
   d="m 14.430224,13.521961 c -0.405594,-0.07921 -0.801794,-0.391057 -0.980061,-0.7714 l -0.09114,-0.194451 -0.0091,-5.6620612 c -0.0089,-5.5681176 -0.0079,-5.6657291 0.05858,-5.8831031 0.125541,-0.4102967 0.499193,-0.76115367 0.929468,-0.87276554 0.133316,-0.0345816 0.537249,-0.0454066 1.694341,-0.0454066 1.418685,0 1.533746,0.004464 1.737538,0.0674087 0.393335,0.12148889 0.667575,0.36853701 0.850031,0.76574748 l 0.0781,0.17003196 V 6.8260361 12.55611 l -0.09114,0.194451 c -0.184142,0.392877 -0.576329,0.693577 -1.010209,0.774552 -0.224475,0.04189 -2.949686,0.03918 -3.166453,-0.0032 z"
   id="path15"
   inkscape:connector-curvature="0" /></svg>