<?xml version="1.0" encoding="UTF-8" standalone="no"?>
<!-- Generator: Adobe Illustrator 20.0.0, SVG Export Plug-In . SVG Version: 6.00 Build 0)  -->

<svg
   xmlns:dc="http://purl.org/dc/elements/1.1/"
   xmlns:cc="http://creativecommons.org/ns#"
   xmlns:rdf="http://www.w3.org/1999/02/22-rdf-syntax-ns#"
   xmlns:svg="http://www.w3.org/2000/svg"
   xmlns="http://www.w3.org/2000/svg"
   xmlns:sodipodi="http://sodipodi.sourceforge.net/DTD/sodipodi-0.dtd"
   xmlns:inkscape="http://www.inkscape.org/namespaces/inkscape"
   version="1.1"
   id="Ebene_1"
   x="0px"
   y="0px"
   viewBox="0 0 32 32"
   style="enable-background:new 0 0 32 32;"
   xml:space="preserve"
   width="32px"
   height="32px"
   class="br-symbol-library"
   sodipodi:docname="OnBlue.svg"
   inkscape:version="0.92.4 (5da689c313, 2019-01-14)"><metadata
   id="metadata11"><rdf:RDF><cc:Work
       rdf:about=""><dc:format>image/svg+xml</dc:format><dc:type
         rdf:resource="http://purl.org/dc/dcmitype/StillImage" /></cc:Work></rdf:RDF></metadata><defs
   id="defs9" /><sodipodi:namedview
   pagecolor="#ffffff"
   bordercolor="#666666"
   borderopacity="1"
   objecttolerance="10"
   gridtolerance="10"
   guidetolerance="10"
   inkscape:pageopacity="0"
   inkscape:pageshadow="2"
   inkscape:window-width="640"
   inkscape:window-height="480"
   id="namedview7"
   showgrid="false"
   inkscape:zoom="29.40625"
   inkscape:cx="16"
   inkscape:cy="16"
   inkscape:current-layer="Ebene_1" />

<g
   id="Ebene_1_1_">
</g>
<path
   style="fill:#00ff00;stroke-width:0.03400638"
   d="M 15.25186,31.96647 C 13.802476,31.899435 12.128683,31.530838 10.695005,30.962975 6.8520318,29.44082 3.7708921,26.202224 2.414803,22.259628 1.2597764,18.901587 1.3717142,15.40788 2.7384385,12.1586 3.6826143,9.9138955 5.251973,7.8814311 7.2093518,6.3683544 7.9579787,5.789657 8.7890316,5.2840001 9.2596863,5.1208217 9.4871954,5.041943 9.8193285,5.0040059 9.9945699,5.0368813 10.154528,5.0668897 10.331321,5.2236018 10.4107,5.4057464 c 0.05713,0.131088 0.06377,0.2725756 0.07358,1.5675265 0.0069,0.9117551 -0.0025,1.5091589 -0.02622,1.6619145 -0.06963,0.4487781 -0.269761,0.733693 -0.6529739,0.9296044 -0.3200728,0.1636319 -0.9409823,0.7355262 -1.46769,1.3518302 -1.3437164,1.572291 -2.1309681,3.291606 -2.455294,5.36223 -0.086865,0.554583 -0.1057466,1.900599 -0.0353,2.516472 0.2149244,1.878952 0.8682267,3.512649 2.0239993,5.061369 0.3604805,0.483039 1.2980003,1.448159 1.77,1.822109 1.4212886,1.126039 3.0881156,1.85039 4.9139216,2.135437 0.407103,0.06356 0.616526,0.07433 1.445271,0.07433 0.828745,0 1.038168,-0.01077 1.445271,-0.07433 1.825921,-0.285065 3.495082,-1.010375 4.913921,-2.135274 0.47251,-0.374621 1.409741,-1.33953 1.77,-1.822272 1.147598,-1.537766 1.808497,-3.182604 2.020003,-5.027363 0.06075,-0.529897 0.0696,-1.627167 0.01732,-2.1473 C 25.898078,14.011737 24.632656,11.590839 22.596216,9.8516472 21.785519,9.1592835 21.720403,9.0875872 21.592447,8.74644 21.53439,8.5916542 21.527615,8.4428127 21.516887,7.0864833 c -0.01272,-1.6077942 9.03e-4,-1.784064 0.151707,-1.9632838 0.246527,-0.2929806 0.640707,-0.2726828 1.28571,0.066206 1.25,0.6567581 2.701106,1.8198906 3.751624,3.0071109 1.996761,2.2565956 3.197193,5.0278476 3.515781,8.1163426 0.06563,0.636268 0.05543,2.310127 -0.01783,2.924548 -0.407354,3.416569 -1.842969,6.349752 -4.260933,8.705747 -2.845779,2.772844 -6.663619,4.20959 -10.691089,4.023316 z"
   id="path13"
   inkscape:connector-curvature="0" /><path
   style="fill:#00ff00;stroke-width:0.03400638"
   d="m 14.430224,13.521961 c -0.405594,-0.07921 -0.801794,-0.391057 -0.980061,-0.7714 l -0.09114,-0.194451 -0.0091,-5.6620612 c -0.0089,-5.5681176 -0.0079,-5.6657291 0.05858,-5.8831031 0.125541,-0.4102967 0.499193,-0.76115367 0.929468,-0.87276554 0.133316,-0.0345816 0.537249,-0.0454066 1.694341,-0.0454066 1.418685,0 1.533746,0.004464 1.737538,0.0674087 0.393335,0.12148889 0.667575,0.36853701 0.850031,0.76574748 l 0.0781,0.17003196 V 6.8260361 12.55611 l -0.09114,0.194451 c -0.184142,0.392877 -0.576329,0.693577 -1.010209,0.774552 -0.224475,0.04189 -2.949686,0.03918 -3.166453,-0.0032 z"
   id="path15"
   inkscape:connector-curvature="0" /><path
   style="fill:#0000ff;stroke-width:0.03400638"
   d="M 14.928799,31.934723 C 13.943597,31.834469 13.286851,31.721499 12.448567,31.508087 9.1537609,30.66929 6.3208896,28.71266 4.2988012,25.879144 2.8049854,23.785886 1.8976549,21.286139 1.6802893,18.664994 1.6231195,17.975601 1.6586651,16.552444 1.7500794,15.870776 2.1268215,13.061442 3.2766098,10.506488 5.1261793,8.3687135 6.071244,7.2763865 7.3135075,6.2185167 8.4211224,5.5628505 9.0992027,5.1614526 9.3811499,5.0578472 9.7973091,5.0571518 c 0.1953312,-3.265e-4 0.2634589,0.014383 0.3562579,0.07692 0.163968,0.1104981 0.261677,0.2733031 0.286274,0.4769961 0.03964,0.3283057 0.0014,3.1236964 -0.04465,3.2604241 -0.0903,0.2683134 -0.247478,0.4438655 -0.6183598,0.6906192 -0.7975356,0.5306138 -1.8313628,1.6889848 -2.519492,2.8230108 -0.7585649,1.250103 -1.3016859,2.872968 -1.4282957,4.2678 -0.0523,0.576185 -0.021434,2.08378 0.051871,2.533475 0.204379,1.253786 0.5775252,2.361658 1.139654,3.383635 0.2815571,0.511884 0.7894542,1.250423 1.1368199,1.653062 0.4211121,0.48812 1.2600824,1.307462 1.6079843,1.570364 1.2087023,0.913389 2.5940733,1.560432 4.0501683,1.891647 0.81671,0.185774 1.039987,0.206925 2.184457,0.206925 0.876578,0 1.139164,-0.01125 1.445271,-0.06194 1.758647,-0.291187 3.303336,-0.935927 4.668078,-1.948415 0.445957,-0.330851 1.244845,-1.097087 1.729261,-1.658584 0.861715,-0.998834 1.60134,-2.378588 1.97989,-3.693445 0.279365,-0.970349 0.379413,-1.7298 0.379413,-2.88009 0,-1.394279 -0.199392,-2.476977 -0.686238,-3.72627 -0.625529,-1.60517 -1.59216,-2.934262 -3.074564,-4.2274443 -0.567062,-0.4946785 -0.675095,-0.6122828 -0.792614,-0.862837 l -0.08845,-0.1885868 -0.01041,-1.5411932 c -0.01162,-1.7196269 -0.0015,-1.8369278 0.173228,-2.0041704 0.286897,-0.2746368 0.696139,-0.2028547 1.50747,0.2644145 1.708724,0.9841034 3.399286,2.5565495 4.533548,4.2167992 1.293448,1.893254 2.069101,3.947078 2.401376,6.358518 0.07324,0.531515 0.102964,2.134524 0.05314,2.865728 -0.07208,1.057907 -0.332758,2.338771 -0.700593,3.442454 -0.564968,1.695177 -1.406212,3.193313 -2.596992,4.624867 -0.389649,0.468437 -1.46796,1.526374 -1.943125,1.906413 -2.18051,1.74398 -4.556228,2.744971 -7.345377,3.094919 -0.40539,0.05086 -2.369179,0.09558 -2.703507,0.06155 z"
   id="path9"
   inkscape:connector-curvature="0" /><path
   style="fill:#0000ff;stroke-width:0.03400638"
   d="M 14.268042,13.456121 C 13.931819,13.33402 13.630695,13.067883 13.473347,12.753758 l -0.08245,-0.164598 -0.02037,-4.9649305 c -0.0112,-2.730712 -0.0087,-5.3321997 0.0055,-5.7810839 0.0254,-0.8026646 0.02739,-0.8191771 0.120516,-0.99913084 0.126097,-0.24367527 0.36722,-0.47879586 0.61657,-0.60122222 l 0.203604,-0.0999658 0.867163,-0.0170032 c 0.476939,-0.009352 1.242083,-0.009352 1.700319,0 0.825665,0.0168503 0.835023,0.0178658 1.040751,0.11294541 0.258186,0.11932397 0.516541,0.37750992 0.656833,0.65640482 l 0.104754,0.20824493 v 5.7194719 5.7194724 l -0.08656,0.182964 c -0.135263,0.285922 -0.355991,0.50666 -0.653914,0.653942 l -0.259049,0.128064 -1.617137,0.0079 c -1.535461,0.0075 -1.626465,0.0045 -1.801806,-0.05914 z"
   id="path11"
   inkscape:connector-curvature="0" /></svg>