<?xml version="1.0" encoding="UTF-8" standalone="no"?>
<!-- Created with Inkscape (http://www.inkscape.org/) -->

<svg
   xmlns:dc="http://purl.org/dc/elements/1.1/"
   xmlns:cc="http://creativecommons.org/ns#"
   xmlns:rdf="http://www.w3.org/1999/02/22-rdf-syntax-ns#"
   xmlns:svg="http://www.w3.org/2000/svg"
   xmlns="http://www.w3.org/2000/svg"
   xmlns:sodipodi="http://sodipodi.sourceforge.net/DTD/sodipodi-0.dtd"
   xmlns:inkscape="http://www.inkscape.org/namespaces/inkscape"
   width="31.999998"
   height="31.999998"
   viewBox="0 0 8.466666 8.4666664"
   version="1.1"
   id="svg8"
   inkscape:version="0.92.4 (5da689c313, 2019-01-14)"
   sodipodi:docname="PersonRuning.svg">
  <defs
     id="defs2" />
  <sodipodi:namedview
     id="base"
     pagecolor="#ffffff"
     bordercolor="#666666"
     borderopacity="1.0"
     inkscape:pageopacity="0.0"
     inkscape:pageshadow="2"
     inkscape:zoom="11.2"
     inkscape:cx="50.728239"
     inkscape:cy="0.90167113"
     inkscape:document-units="px"
     inkscape:current-layer="layer1"
     showgrid="false"
     units="px"
     fit-margin-top="0"
     fit-margin-left="0"
     fit-margin-right="0"
     fit-margin-bottom="0" />
  <metadata
     id="metadata5">
    <rdf:RDF>
      <cc:Work
         rdf:about="">
        <dc:format>image/svg+xml</dc:format>
        <dc:type
           rdf:resource="http://purl.org/dc/dcmitype/StillImage" />
        <dc:title></dc:title>
      </cc:Work>
    </rdf:RDF>
  </metadata>
  <g
     inkscape:label="Layer 1"
     inkscape:groupmode="layer"
     id="layer1"
     transform="translate(-183.99881,-248.16548)">
    <path
       style="fill:#000000;stroke-width:0.26458332"
       d="m 188.03154,256.27705 c -0.0787,-0.20515 0.0581,-0.76206 0.30397,-1.23759 0.4896,-0.94678 0.54286,-0.84986 -1.07028,-1.94754 -0.55854,-0.38007 -0.56758,-0.34043 0.45301,-1.98609 0.47415,-0.76454 0.0406,-0.97699 -0.88188,-0.43209 -1.10497,0.65272 -1.59553,0.1689 -0.61265,-0.60423 1.28467,-1.01052 3.48564,-0.4449 3.94894,1.01483 0.0932,0.29359 0.45207,0.54054 0.85513,0.58841 0.38201,0.0454 0.74343,0.23133 0.80316,0.41323 0.18093,0.55102 -1.96896,0.42729 -2.29876,-0.13229 -0.238,-0.40383 -0.30681,-0.41228 -0.53826,-0.0661 -0.40507,0.60579 -0.32671,1.01122 0.25569,1.32291 0.67205,0.35967 0.67046,1.06704 -0.005,2.39179 -0.55453,1.08697 -0.96655,1.31624 -1.21269,0.6748 z m -3.94131,-1.74367 c -0.30143,-0.48773 0.15512,-0.79375 1.1842,-0.79375 0.58078,0 1.06864,-0.14254 1.13198,-0.33073 0.0864,-0.2568 0.21113,-0.24832 0.55789,0.0379 0.41829,0.34531 0.41842,0.39978 0.002,0.85989 -0.48522,0.53618 -2.58262,0.70146 -2.87608,0.22665 z m 5.26218,-5.14082 c -0.26344,-0.6865 0.1058,-1.25391 0.75591,-1.16159 0.84789,0.1204 0.84789,1.37192 0,1.49232 -0.35779,0.0508 -0.66029,-0.0815 -0.75591,-0.33073 z"
       id="path826"
       inkscape:connector-curvature="0" />
  </g>
</svg>
