<?xml version="1.0" encoding="UTF-8" standalone="no"?>
<!-- Generator: Adobe Illustrator 20.0.0, SVG Export Plug-In . SVG Version: 6.00 Build 0)  -->

<svg
   xmlns:dc="http://purl.org/dc/elements/1.1/"
   xmlns:cc="http://creativecommons.org/ns#"
   xmlns:rdf="http://www.w3.org/1999/02/22-rdf-syntax-ns#"
   xmlns:svg="http://www.w3.org/2000/svg"
   xmlns="http://www.w3.org/2000/svg"
   xmlns:sodipodi="http://sodipodi.sourceforge.net/DTD/sodipodi-0.dtd"
   xmlns:inkscape="http://www.inkscape.org/namespaces/inkscape"
   version="1.1"
   id="Ebene_1"
   x="0px"
   y="0px"
   viewBox="0 0 32 32"
   style="enable-background:new 0 0 32 32;"
   xml:space="preserve"
   width="32px"
   height="32px"
   class="br-symbol-library"
   sodipodi:docname="Critical.svg"
   inkscape:version="0.92.4 (5da689c313, 2019-01-14)"><metadata
   id="metadata10"><rdf:RDF><cc:Work
       rdf:about=""><dc:format>image/svg+xml</dc:format><dc:type
         rdf:resource="http://purl.org/dc/dcmitype/StillImage" /></cc:Work></rdf:RDF></metadata><defs
   id="defs8" /><sodipodi:namedview
   pagecolor="#ffffff"
   bordercolor="#666666"
   borderopacity="1"
   objecttolerance="10"
   gridtolerance="10"
   guidetolerance="10"
   inkscape:pageopacity="0"
   inkscape:pageshadow="2"
   inkscape:window-width="640"
   inkscape:window-height="480"
   id="namedview6"
   showgrid="false"
   inkscape:zoom="7.375"
   inkscape:cx="16"
   inkscape:cy="16"
   inkscape:window-x="144"
   inkscape:window-y="16"
   inkscape:window-maximized="0"
   inkscape:current-layer="Ebene_1" />
<g
   id="Error"
   style="fill:#ff0000">
	<path
   id="Fehler_3_"
   d="M27.313,4.688c-6.247-6.25-16.378-6.25-22.628,0c-6.247,6.247-6.247,16.378,0,22.625   c6.25,6.25,16.38,6.25,22.628,0C33.561,21.065,33.563,10.935,27.313,4.688z M23.388,19.695c0.255,0.255,0.255,0.67,0,0.923   l-2.77,2.77c-0.255,0.255-0.67,0.255-0.925,0L16,19.696l-3.695,3.692c-0.253,0.255-0.668,0.255-0.923,0l-2.77-2.77   c-0.255-0.253-0.255-0.668,0-0.923L12.306,16l-3.693-3.695c-0.255-0.255-0.255-0.67,0-0.923l2.77-2.77   c0.255-0.255,0.668-0.255,0.923,0l3.695,3.693l3.693-3.693c0.255-0.255,0.67-0.255,0.925,0l2.77,2.77   c0.255,0.252,0.255,0.667,0,0.923L19.693,16L23.388,19.695z"
   style="fill:#ff0000" />
</g>
<g
   id="Ebene_1_1_">
</g>
</svg>