<?xml version="1.0" encoding="UTF-8" standalone="no"?>
<!-- Created with Inkscape (http://www.inkscape.org/) -->

<svg
   xmlns:dc="http://purl.org/dc/elements/1.1/"
   xmlns:cc="http://creativecommons.org/ns#"
   xmlns:rdf="http://www.w3.org/1999/02/22-rdf-syntax-ns#"
   xmlns:svg="http://www.w3.org/2000/svg"
   xmlns="http://www.w3.org/2000/svg"
   xmlns:sodipodi="http://sodipodi.sourceforge.net/DTD/sodipodi-0.dtd"
   xmlns:inkscape="http://www.inkscape.org/namespaces/inkscape"
   width="32"
   height="32"
   viewBox="0 0 8.4666667 8.4666667"
   version="1.1"
   id="svg838"
   inkscape:version="0.92.4 (5da689c313, 2019-01-14)"
   sodipodi:docname="TargetLightGray.svg">
  <defs
     id="defs832" />
  <sodipodi:namedview
     id="base"
     pagecolor="#ffffff"
     bordercolor="#666666"
     borderopacity="1.0"
     inkscape:pageopacity="0.0"
     inkscape:pageshadow="2"
     inkscape:zoom="5.6"
     inkscape:cx="21.50589"
     inkscape:cy="-24.637895"
     inkscape:document-units="px"
     inkscape:current-layer="layer1"
     showgrid="false"
     units="px"
     fit-margin-top="0"
     fit-margin-left="0"
     fit-margin-right="0"
     fit-margin-bottom="0" />
  <metadata
     id="metadata835">
    <rdf:RDF>
      <cc:Work
         rdf:about="">
        <dc:format>image/svg+xml</dc:format>
        <dc:type
           rdf:resource="http://purl.org/dc/dcmitype/StillImage" />
        <dc:title></dc:title>
      </cc:Work>
    </rdf:RDF>
  </metadata>
  <g
     inkscape:label="Layer 1"
     inkscape:groupmode="layer"
     id="layer1"
     transform="translate(-198.31465,-245.04718)">
    <path
       style="fill:#cccccc;stroke-width:0.1754044"
       d="m 201.03127,253.20468 c -1.21502,-0.43071 -2.13566,-1.49576 -2.59608,-3.00329 l -0.12052,-0.39465 h 0.51902 0.51902 l 0.11111,0.44293 c 0.16402,0.6535 1.26474,1.78855 1.95558,2.01655 l 0.60235,0.19879 v 0.5126 c 0,0.57936 0.001,0.5789 -0.99052,0.22707 z m 2.04295,-0.21524 v -0.52443 l 0.5827,-0.19231 c 0.72167,-0.23817 1.62239,-1.14556 1.88504,-1.89901 l 0.19765,-0.56695 h 0.52086 0.52088 l -0.12053,0.39465 c -0.53185,1.74148 -1.45046,2.66008 -3.19194,3.19194 l -0.39465,0.12052 z m -1.98434,-2.27143 c -0.25923,-0.27057 -0.47133,-0.58631 -0.47133,-0.70162 v -0.20965 h 0.70162 0.70162 v 0.70161 0.70162 h -0.23029 c -0.12662,0 -0.44238,-0.22138 -0.70162,-0.49196 z m 1.98434,-0.20966 v -0.70161 h 0.70161 0.70162 v 0.23028 c 0,0.2832 -0.9054,1.17295 -1.19358,1.17295 h -0.20965 z m -4.63903,-2.1487 c 0.54039,-1.7694 1.42255,-2.65155 3.19194,-3.19194 l 0.39466,-0.12052 v 0.51902 0.51902 l -0.44294,0.11111 c -0.6535,0.16402 -1.78855,1.26474 -2.01655,1.95558 l -0.19879,0.60235 h -0.52443 -0.52443 z m 2.18336,0.185 c 0,-0.28817 0.88975,-1.19358 1.17295,-1.19358 h 0.23029 v 0.70162 0.70162 h -0.70162 -0.70162 z m 2.45567,-0.49196 v -0.70162 h 0.23028 c 0.2832,0 1.17295,0.90541 1.17295,1.19358 v 0.20966 h -0.70162 -0.70161 z m 2.46596,0.11893 c -0.23817,-0.72167 -1.14556,-1.62237 -1.89901,-1.88503 l -0.56695,-0.19764 v -0.52087 -0.52088 l 0.39465,0.12052 c 1.7694,0.5404 2.65155,1.42255 3.19194,3.19194 l 0.12052,0.39467 h -0.52443 -0.52443 z"
       id="path1396"
       inkscape:connector-curvature="0" />
  </g>
</svg>
