<?xml version="1.0" encoding="UTF-8" standalone="no"?>
<!-- Created with Inkscape (http://www.inkscape.org/) -->

<svg
   xmlns:dc="http://purl.org/dc/elements/1.1/"
   xmlns:cc="http://creativecommons.org/ns#"
   xmlns:rdf="http://www.w3.org/1999/02/22-rdf-syntax-ns#"
   xmlns:svg="http://www.w3.org/2000/svg"
   xmlns="http://www.w3.org/2000/svg"
   xmlns:sodipodi="http://sodipodi.sourceforge.net/DTD/sodipodi-0.dtd"
   xmlns:inkscape="http://www.inkscape.org/namespaces/inkscape"
   width="31.999998"
   height="31.999998"
   viewBox="0 0 8.466666 8.4666664"
   version="1.1"
   id="svg818"
   inkscape:version="0.92.4 (5da689c313, 2019-01-14)"
   sodipodi:docname="CheckGreen.svg">
  <defs
     id="defs812" />
  <sodipodi:namedview
     id="base"
     pagecolor="#ffffff"
     bordercolor="#666666"
     borderopacity="1.0"
     inkscape:pageopacity="0.0"
     inkscape:pageshadow="2"
     inkscape:zoom="15.839192"
     inkscape:cx="13.163904"
     inkscape:cy="13.748677"
     inkscape:document-units="px"
     inkscape:current-layer="layer1"
     showgrid="false"
     units="px"
     fit-margin-top="0"
     fit-margin-left="0"
     fit-margin-right="0"
     fit-margin-bottom="0"
     showguides="false"
     inkscape:window-width="1451"
     inkscape:window-height="1289"
     inkscape:window-x="276"
     inkscape:window-y="78"
     inkscape:window-maximized="0" />
  <metadata
     id="metadata815">
    <rdf:RDF>
      <cc:Work
         rdf:about="">
        <dc:format>image/svg+xml</dc:format>
        <dc:type
           rdf:resource="http://purl.org/dc/dcmitype/StillImage" />
        <dc:title />
      </cc:Work>
    </rdf:RDF>
  </metadata>
  <g
     inkscape:label="Layer 1"
     inkscape:groupmode="layer"
     id="layer1"
     transform="translate(-59.26667,-69.760727)">
    <path
       style="fill:#9acd32;stroke-width:0.17962871;fill-opacity:1"
       d="M 60.791861,75.65303 59.26667,74.137 l 0.708922,-0.717892 0.708923,-0.717893 0.867288,0.844706 0.86729,0.844704 1.945773,-1.918074 1.945775,-1.918074 0.711348,0.720349 0.711348,0.72035 -2.611498,2.586942 c -1.436324,1.422818 -2.654987,2.586942 -2.708142,2.586942 -0.05315,0 -0.782981,-0.682213 -1.621836,-1.51603 z"
       id="path837"
       inkscape:connector-curvature="0" />
    <path
       style="opacity:0;fill:#00ff00;fill-opacity:1;stroke-width:0.17857143"
       d="M 8.5521152,24.621496 C 6.8579188,22.901853 5.4717581,21.42381 5.4717581,21.336956 c 0,-0.08685 -0.074013,-0.157916 -0.1644738,-0.157916 -0.2019291,0 -1.7998119,-1.579392 -1.7998119,-1.778985 0,-0.079 -0.1607143,-0.185674 -0.3571429,-0.237041 -0.1964286,-0.05137 -0.3571429,-0.221454 -0.3571429,-0.37797 0,-0.156516 -0.074013,-0.284575 -0.1644737,-0.284575 -0.09046,0 -0.5173419,-0.352868 -0.9486253,-0.784152 C 1.05123,17.08746 0.92352296,16.857591 1.0352356,16.555603 1.1118503,16.348494 1.2574817,16.17904 1.3588609,16.17904 c 0.1013792,0 0.1843257,-0.120535 0.1843257,-0.267857 0,-0.147321 0.1280588,-0.267857 0.284575,-0.267857 0.1565162,0 0.3266026,-0.160714 0.3779699,-0.357143 0.051367,-0.196428 0.2120814,-0.357143 0.3571428,-0.357143 0.1450615,0 0.3057757,-0.160714 0.3571429,-0.357142 0.051367,-0.196429 0.1844693,-0.358531 0.2957821,-0.360228 0.2562973,-0.0039 1.0059588,-0.785547 1.0059588,-1.04887 0,-0.108925 0.1280587,-0.198045 0.284575,-0.198045 0.156516,0 0.321356,-0.140652 0.366311,-0.31256 0.086051,-0.32906 0.9562568,-0.841849 0.9562568,-0.563497 0,0.08897 0.1111636,0.161771 0.2470302,0.161771 0.1358664,0 0.2890579,0.160714 0.340425,0.357143 0.051367,0.196428 0.2214538,0.357143 0.3779698,0.357143 0.1565163,0 0.284575,0.11512 0.284575,0.255823 0,0.140703 0.1607143,0.306833 0.3571429,0.369177 0.1964286,0.06234 0.3571429,0.228473 0.3571429,0.369176 0,0.140703 0.1151207,0.255824 0.2558235,0.255824 0.1407031,0 0.3068325,0.160714 0.3691765,0.357143 0.062344,0.196428 0.2191012,0.357142 0.3483492,0.357142 0.1292483,0 0.2770245,0.160715 0.3283917,0.357143 0.051367,0.196429 0.2214537,0.357143 0.3779698,0.357143 0.1565162,0 0.284575,0.115121 0.284575,0.255824 0,0.140703 0.1607143,0.306832 0.3571426,0.369176 0.196429,0.06234 0.357143,0.228474 0.357143,0.369177 0,0.140702 0.115121,0.255823 0.255824,0.255823 0.140703,0 0.306832,0.160714 0.369176,0.357143 0.08533,0.268858 0.270185,0.357143 0.747789,0.357143 0.56407,0 0.821373,-0.188155 2.319873,-1.696429 0.92699,-0.933035 1.761078,-1.696428 1.85353,-1.696428 0.09245,0 0.168094,-0.0763 0.168094,-0.169559 0,-0.337869 10.159098,-10.3173294 10.253257,-10.0719544 0.05097,0.1328322 0.206362,0.2415131 0.345311,0.2415131 0.13895,0 0.294662,0.1607143 0.34603,0.3571429 0.05137,0.1964285 0.221454,0.3571428 0.37797,0.3571428 0.156516,0 0.284575,0.076705 0.284575,0.1704546 0,0.2099959 0.852773,1.0795454 1.058718,1.0795454 0.0823,0 0.191655,0.1607143 0.243023,0.3571429 0.05137,0.1964285 0.212082,0.3571428 0.357143,0.3571428 0.14506,0 0.305775,0.1607143 0.357142,0.3571429 0.05137,0.1964286 0.221454,0.3571428 0.37797,0.3571428 0.156516,0 0.284575,0.1119384 0.284575,0.248752 0,0.1368136 0.120536,0.2950059 0.267857,0.3515384 0.346881,0.1331107 0.346881,0.7597466 0,0.8928571 -0.147321,0.056533 -0.267857,0.216472 -0.267857,0.3554211 0,0.1389489 -0.160714,0.2946623 -0.357143,0.3460295 -0.196428,0.051367 -0.357143,0.2214541 -0.357143,0.3779701 0,0.156516 -0.09123,0.284575 -0.202737,0.284575 -0.23208,0 -1.047263,0.831788 -1.047263,1.068595 0,0.08654 -0.160714,0.208346 -0.357142,0.27069 -0.196429,0.06234 -0.357143,0.219102 -0.357143,0.34835 0,0.129248 -0.160715,0.277024 -0.357143,0.328391 -0.196429,0.05137 -0.357143,0.221454 -0.357143,0.37797 0,0.156516 -0.09123,0.284575 -0.202738,0.284575 -0.227401,0 -1.047262,0.829677 -1.047262,1.059802 0,0.0817 -0.160714,0.190572 -0.357143,0.241939 -0.196428,0.05137 -0.357143,0.212081 -0.357143,0.357143 0,0.145061 -0.160714,0.305776 -0.357143,0.357143 -0.196428,0.05137 -0.357142,0.221454 -0.357142,0.37797 0,0.156516 -0.07671,0.284575 -0.170456,0.284575 -0.209994,0 -1.079544,0.852773 -1.079544,1.058718 0,0.08229 -0.160715,0.191655 -0.357143,0.243022 -0.196429,0.05137 -0.357143,0.212082 -0.357143,0.357143 0,0.145062 -0.160714,0.305776 -0.357143,0.357143 -0.196429,0.05137 -0.357143,0.221454 -0.357143,0.37797 0,0.156516 -0.07671,0.284575 -0.170455,0.284575 -0.221498,0 -1.079545,0.858046 -1.079545,1.079546 0,0.09375 -0.128059,0.170454 -0.284575,0.170454 -0.156516,0 -0.326602,0.160714 -0.37797,0.357143 -0.05137,0.196428 -0.175255,0.357143 -0.275305,0.357143 -0.211846,0 -1.026436,0.841068 -1.026436,1.059802 0,0.0817 -0.160714,0.190571 -0.357142,0.241939 -0.196429,0.05137 -0.357143,0.212082 -0.357143,0.357143 0,0.14506 -0.160715,0.305775 -0.357143,0.357143 -0.196429,0.05137 -0.357143,0.221453 -0.357143,0.377969 0,0.156516 -0.0767,0.284575 -0.170455,0.284575 -0.209996,0 -1.079545,0.852773 -1.079545,1.058718 0,0.0823 -0.160714,0.191655 -0.357143,0.243023 -0.196428,0.05137 -0.357143,0.212082 -0.357143,0.357143 0,0.145061 -0.160714,0.305775 -0.357143,0.357143 -0.196428,0.05137 -0.357142,0.221454 -0.357142,0.37797 0,0.156516 -0.07671,0.284575 -0.170455,0.284575 -0.209996,0 -1.079545,0.852773 -1.079545,1.058717 0,0.0823 -0.160715,0.191656 -0.357143,0.243024 -0.196429,0.05137 -0.357143,0.221453 -0.357143,0.377969 0,0.181706 -0.145239,0.277695 -0.401786,0.265543 -0.271005,-0.01284 -1.404438,-1.036743 -3.4821428,-3.145655 z"
       id="path1374"
       inkscape:connector-curvature="0"
       transform="matrix(0.26458333,0,0,0.26458333,59.26667,69.760727)" />
    <path
       style="opacity:0;fill:#00ff00;fill-opacity:1;stroke-width:0.17857143"
       d="M 8.5521152,24.621496 C 6.8579188,22.901853 5.4717581,21.42381 5.4717581,21.336956 c 0,-0.08685 -0.074013,-0.157916 -0.1644738,-0.157916 -0.2019291,0 -1.7998119,-1.579392 -1.7998119,-1.778985 0,-0.079 -0.1607143,-0.185674 -0.3571429,-0.237041 -0.1964286,-0.05137 -0.3571429,-0.221454 -0.3571429,-0.37797 0,-0.156516 -0.074013,-0.284575 -0.1644737,-0.284575 -0.09046,0 -0.5173419,-0.352868 -0.9486253,-0.784152 C 1.05123,17.08746 0.92352296,16.857591 1.0352356,16.555603 1.1118503,16.348494 1.2574817,16.17904 1.3588609,16.17904 c 0.1013792,0 0.1843257,-0.120535 0.1843257,-0.267857 0,-0.147321 0.1280588,-0.267857 0.284575,-0.267857 0.1565162,0 0.3266026,-0.160714 0.3779699,-0.357143 0.051367,-0.196428 0.2120814,-0.357143 0.3571428,-0.357143 0.1450615,0 0.3057757,-0.160714 0.3571429,-0.357142 0.051367,-0.196429 0.1844693,-0.358531 0.2957821,-0.360228 0.2562973,-0.0039 1.0059588,-0.785547 1.0059588,-1.04887 0,-0.108925 0.1280587,-0.198045 0.284575,-0.198045 0.156516,0 0.321356,-0.140652 0.366311,-0.31256 0.086051,-0.32906 0.9562568,-0.841849 0.9562568,-0.563497 0,0.08897 0.1111636,0.161771 0.2470302,0.161771 0.1358664,0 0.2890579,0.160714 0.340425,0.357143 0.051367,0.196428 0.2214538,0.357143 0.3779698,0.357143 0.1565163,0 0.284575,0.11512 0.284575,0.255823 0,0.140703 0.1607143,0.306833 0.3571429,0.369177 0.1964286,0.06234 0.3571429,0.228473 0.3571429,0.369176 0,0.140703 0.1151207,0.255824 0.2558235,0.255824 0.1407031,0 0.3068325,0.160714 0.3691765,0.357143 0.062344,0.196428 0.2191012,0.357142 0.3483492,0.357142 0.1292483,0 0.2770245,0.160715 0.3283917,0.357143 0.051367,0.196429 0.2214537,0.357143 0.3779698,0.357143 0.1565162,0 0.284575,0.115121 0.284575,0.255824 0,0.140703 0.1607143,0.306832 0.3571426,0.369176 0.196429,0.06234 0.357143,0.228474 0.357143,0.369177 0,0.140702 0.115121,0.255823 0.255824,0.255823 0.140703,0 0.306832,0.160714 0.369176,0.357143 0.08533,0.268858 0.270185,0.357143 0.747789,0.357143 0.56407,0 0.821373,-0.188155 2.319873,-1.696429 0.92699,-0.933035 1.761078,-1.696428 1.85353,-1.696428 0.09245,0 0.168094,-0.0763 0.168094,-0.169559 0,-0.337869 10.159098,-10.3173294 10.253257,-10.0719544 0.05097,0.1328322 0.206362,0.2415131 0.345311,0.2415131 0.13895,0 0.294662,0.1607143 0.34603,0.3571429 0.05137,0.1964285 0.221454,0.3571428 0.37797,0.3571428 0.156516,0 0.284575,0.076705 0.284575,0.1704546 0,0.2099959 0.852773,1.0795454 1.058718,1.0795454 0.0823,0 0.191655,0.1607143 0.243023,0.3571429 0.05137,0.1964285 0.212082,0.3571428 0.357143,0.3571428 0.14506,0 0.305775,0.1607143 0.357142,0.3571429 0.05137,0.1964286 0.221454,0.3571428 0.37797,0.3571428 0.156516,0 0.284575,0.1119384 0.284575,0.248752 0,0.1368136 0.120536,0.2950059 0.267857,0.3515384 0.346881,0.1331107 0.346881,0.7597466 0,0.8928571 -0.147321,0.056533 -0.267857,0.216472 -0.267857,0.3554211 0,0.1389489 -0.160714,0.2946623 -0.357143,0.3460295 -0.196428,0.051367 -0.357143,0.2214541 -0.357143,0.3779701 0,0.156516 -0.09123,0.284575 -0.202737,0.284575 -0.23208,0 -1.047263,0.831788 -1.047263,1.068595 0,0.08654 -0.160714,0.208346 -0.357142,0.27069 -0.196429,0.06234 -0.357143,0.219102 -0.357143,0.34835 0,0.129248 -0.160715,0.277024 -0.357143,0.328391 -0.196429,0.05137 -0.357143,0.221454 -0.357143,0.37797 0,0.156516 -0.09123,0.284575 -0.202738,0.284575 -0.227401,0 -1.047262,0.829677 -1.047262,1.059802 0,0.0817 -0.160714,0.190572 -0.357143,0.241939 -0.196428,0.05137 -0.357143,0.212081 -0.357143,0.357143 0,0.145061 -0.160714,0.305776 -0.357143,0.357143 -0.196428,0.05137 -0.357142,0.221454 -0.357142,0.37797 0,0.156516 -0.07671,0.284575 -0.170456,0.284575 -0.209994,0 -1.079544,0.852773 -1.079544,1.058718 0,0.08229 -0.160715,0.191655 -0.357143,0.243022 -0.196429,0.05137 -0.357143,0.212082 -0.357143,0.357143 0,0.145062 -0.160714,0.305776 -0.357143,0.357143 -0.196429,0.05137 -0.357143,0.221454 -0.357143,0.37797 0,0.156516 -0.07671,0.284575 -0.170455,0.284575 -0.221498,0 -1.079545,0.858046 -1.079545,1.079546 0,0.09375 -0.128059,0.170454 -0.284575,0.170454 -0.156516,0 -0.326602,0.160714 -0.37797,0.357143 -0.05137,0.196428 -0.175255,0.357143 -0.275305,0.357143 -0.211846,0 -1.026436,0.841068 -1.026436,1.059802 0,0.0817 -0.160714,0.190571 -0.357142,0.241939 -0.196429,0.05137 -0.357143,0.212082 -0.357143,0.357143 0,0.14506 -0.160715,0.305775 -0.357143,0.357143 -0.196429,0.05137 -0.357143,0.221453 -0.357143,0.377969 0,0.156516 -0.0767,0.284575 -0.170455,0.284575 -0.209996,0 -1.079545,0.852773 -1.079545,1.058718 0,0.0823 -0.160714,0.191655 -0.357143,0.243023 -0.196428,0.05137 -0.357143,0.212082 -0.357143,0.357143 0,0.145061 -0.160714,0.305775 -0.357143,0.357143 -0.196428,0.05137 -0.357142,0.221454 -0.357142,0.37797 0,0.156516 -0.07671,0.284575 -0.170455,0.284575 -0.209996,0 -1.079545,0.852773 -1.079545,1.058717 0,0.0823 -0.160715,0.191656 -0.357143,0.243024 -0.196429,0.05137 -0.357143,0.221453 -0.357143,0.377969 0,0.181706 -0.145239,0.277695 -0.401786,0.265543 -0.271005,-0.01284 -1.404438,-1.036743 -3.4821428,-3.145655 z"
       id="path1376"
       inkscape:connector-curvature="0"
       transform="matrix(0.26458333,0,0,0.26458333,59.26667,69.760727)" />
    <path
       style="opacity:0;fill:#00ff00;fill-opacity:1;stroke-width:0.17857143"
       d="M 8.5521152,24.621496 C 6.8579188,22.901853 5.4717581,21.42381 5.4717581,21.336956 c 0,-0.08685 -0.074013,-0.157916 -0.1644738,-0.157916 -0.2019291,0 -1.7998119,-1.579392 -1.7998119,-1.778985 0,-0.079 -0.1607143,-0.185674 -0.3571429,-0.237041 -0.1964286,-0.05137 -0.3571429,-0.221454 -0.3571429,-0.37797 0,-0.156516 -0.074013,-0.284575 -0.1644737,-0.284575 -0.09046,0 -0.5173419,-0.352868 -0.9486253,-0.784152 C 1.05123,17.08746 0.92352296,16.857591 1.0352356,16.555603 1.1118503,16.348494 1.2574817,16.17904 1.3588609,16.17904 c 0.1013792,0 0.1843257,-0.120535 0.1843257,-0.267857 0,-0.147321 0.1280588,-0.267857 0.284575,-0.267857 0.1565162,0 0.3266026,-0.160714 0.3779699,-0.357143 0.051367,-0.196428 0.2120814,-0.357143 0.3571428,-0.357143 0.1450615,0 0.3057757,-0.160714 0.3571429,-0.357142 0.051367,-0.196429 0.1844693,-0.358531 0.2957821,-0.360228 0.2562973,-0.0039 1.0059588,-0.785547 1.0059588,-1.04887 0,-0.108925 0.1280587,-0.198045 0.284575,-0.198045 0.156516,0 0.321356,-0.140652 0.366311,-0.31256 0.086051,-0.32906 0.9562568,-0.841849 0.9562568,-0.563497 0,0.08897 0.1111636,0.161771 0.2470302,0.161771 0.1358664,0 0.2890579,0.160714 0.340425,0.357143 0.051367,0.196428 0.2214538,0.357143 0.3779698,0.357143 0.1565163,0 0.284575,0.11512 0.284575,0.255823 0,0.140703 0.1607143,0.306833 0.3571429,0.369177 0.1964286,0.06234 0.3571429,0.228473 0.3571429,0.369176 0,0.140703 0.1151207,0.255824 0.2558235,0.255824 0.1407031,0 0.3068325,0.160714 0.3691765,0.357143 0.062344,0.196428 0.2191012,0.357142 0.3483492,0.357142 0.1292483,0 0.2770245,0.160715 0.3283917,0.357143 0.051367,0.196429 0.2214537,0.357143 0.3779698,0.357143 0.1565162,0 0.284575,0.115121 0.284575,0.255824 0,0.140703 0.1607143,0.306832 0.3571426,0.369176 0.196429,0.06234 0.357143,0.228474 0.357143,0.369177 0,0.140702 0.115121,0.255823 0.255824,0.255823 0.140703,0 0.306832,0.160714 0.369176,0.357143 0.08533,0.268858 0.270185,0.357143 0.747789,0.357143 0.56407,0 0.821373,-0.188155 2.319873,-1.696429 0.92699,-0.933035 1.761078,-1.696428 1.85353,-1.696428 0.09245,0 0.168094,-0.0763 0.168094,-0.169559 0,-0.337869 10.159098,-10.3173294 10.253257,-10.0719544 0.05097,0.1328322 0.206362,0.2415131 0.345311,0.2415131 0.13895,0 0.294662,0.1607143 0.34603,0.3571429 0.05137,0.1964285 0.221454,0.3571428 0.37797,0.3571428 0.156516,0 0.284575,0.076705 0.284575,0.1704546 0,0.2099959 0.852773,1.0795454 1.058718,1.0795454 0.0823,0 0.191655,0.1607143 0.243023,0.3571429 0.05137,0.1964285 0.212082,0.3571428 0.357143,0.3571428 0.14506,0 0.305775,0.1607143 0.357142,0.3571429 0.05137,0.1964286 0.221454,0.3571428 0.37797,0.3571428 0.156516,0 0.284575,0.1119384 0.284575,0.248752 0,0.1368136 0.120536,0.2950059 0.267857,0.3515384 0.346881,0.1331107 0.346881,0.7597466 0,0.8928571 -0.147321,0.056533 -0.267857,0.216472 -0.267857,0.3554211 0,0.1389489 -0.160714,0.2946623 -0.357143,0.3460295 -0.196428,0.051367 -0.357143,0.2214541 -0.357143,0.3779701 0,0.156516 -0.09123,0.284575 -0.202737,0.284575 -0.23208,0 -1.047263,0.831788 -1.047263,1.068595 0,0.08654 -0.160714,0.208346 -0.357142,0.27069 -0.196429,0.06234 -0.357143,0.219102 -0.357143,0.34835 0,0.129248 -0.160715,0.277024 -0.357143,0.328391 -0.196429,0.05137 -0.357143,0.221454 -0.357143,0.37797 0,0.156516 -0.09123,0.284575 -0.202738,0.284575 -0.227401,0 -1.047262,0.829677 -1.047262,1.059802 0,0.0817 -0.160714,0.190572 -0.357143,0.241939 -0.196428,0.05137 -0.357143,0.212081 -0.357143,0.357143 0,0.145061 -0.160714,0.305776 -0.357143,0.357143 -0.196428,0.05137 -0.357142,0.221454 -0.357142,0.37797 0,0.156516 -0.07671,0.284575 -0.170456,0.284575 -0.209994,0 -1.079544,0.852773 -1.079544,1.058718 0,0.08229 -0.160715,0.191655 -0.357143,0.243022 -0.196429,0.05137 -0.357143,0.212082 -0.357143,0.357143 0,0.145062 -0.160714,0.305776 -0.357143,0.357143 -0.196429,0.05137 -0.357143,0.221454 -0.357143,0.37797 0,0.156516 -0.07671,0.284575 -0.170455,0.284575 -0.221498,0 -1.079545,0.858046 -1.079545,1.079546 0,0.09375 -0.128059,0.170454 -0.284575,0.170454 -0.156516,0 -0.326602,0.160714 -0.37797,0.357143 -0.05137,0.196428 -0.175255,0.357143 -0.275305,0.357143 -0.211846,0 -1.026436,0.841068 -1.026436,1.059802 0,0.0817 -0.160714,0.190571 -0.357142,0.241939 -0.196429,0.05137 -0.357143,0.212082 -0.357143,0.357143 0,0.14506 -0.160715,0.305775 -0.357143,0.357143 -0.196429,0.05137 -0.357143,0.221453 -0.357143,0.377969 0,0.156516 -0.0767,0.284575 -0.170455,0.284575 -0.209996,0 -1.079545,0.852773 -1.079545,1.058718 0,0.0823 -0.160714,0.191655 -0.357143,0.243023 -0.196428,0.05137 -0.357143,0.212082 -0.357143,0.357143 0,0.145061 -0.160714,0.305775 -0.357143,0.357143 -0.196428,0.05137 -0.357142,0.221454 -0.357142,0.37797 0,0.156516 -0.07671,0.284575 -0.170455,0.284575 -0.209996,0 -1.079545,0.852773 -1.079545,1.058717 0,0.0823 -0.160715,0.191656 -0.357143,0.243024 -0.196429,0.05137 -0.357143,0.221453 -0.357143,0.377969 0,0.181706 -0.145239,0.277695 -0.401786,0.265543 -0.271005,-0.01284 -1.404438,-1.036743 -3.4821428,-3.145655 z"
       id="path1378"
       inkscape:connector-curvature="0"
       transform="matrix(0.26458333,0,0,0.26458333,59.26667,69.760727)" />
    <path
       style="opacity:0;fill:#ffff00;fill-opacity:0.65581396;stroke-width:0.12626907"
       d="M 10.828277,26.097771 C 10.349722,25.780127 8.2695102,23.82665 5.6851453,21.267979 l -4.3395616,-4.296418 2.1916619,-2.109224 2.1916618,-2.109224 2.2741689,2.245201 c 1.2507929,1.23486 2.5495647,2.432011 2.8861597,2.660336 l 0.61199,0.415135 0.682268,-0.345196 c 0.375247,-0.189858 0.682267,-0.423653 0.682267,-0.519545 0,-0.09589 0.05972,-0.174349 0.132707,-0.174349 0.07299,0 0.314478,-0.190348 0.536643,-0.422995 0.222165,-0.232647 0.830095,-0.812731 1.350955,-1.289076 0.52086,-0.476344 3.207344,-3.084435 5.969966,-5.7957565 2.762622,-2.7113216 5.063876,-4.9435924 5.113898,-4.9606019 0.05002,-0.01701 0.77802,0.636433 1.617773,1.4520943 1.48046,1.4379862 2.324382,2.4346945 2.324382,2.7451957 0,0.4059181 -8.479742,9.1364934 -14.611311,15.0435184 -2.457364,2.367372 -2.991056,2.82407 -3.300175,2.82407 -0.222468,0 -0.687526,-0.211589 -1.172322,-0.533373 z"
       id="path1394"
       inkscape:connector-curvature="0"
       transform="matrix(0.26458333,0,0,0.26458333,59.26667,69.760727)" />
    <path
       style="opacity:0;fill:#ffff00;fill-opacity:0.65581396;stroke-width:0.12626907"
       d="M 10.52071,28.454783 C 7.9111807,26.296391 3.2664113,21.565535 1.9738173,19.74948 1.0288236,18.421792 0.70487291,17.634036 0.70163307,16.655888 0.6995233,16.018921 0.77155863,15.69372 1.0233353,15.203578 1.5983151,14.084245 3.8735881,11.765097 5.1303688,11.017348 L 5.6656006,10.6989 6.1405213,10.991855 c 0.6346795,0.391502 2.1307109,1.716637 4.1492797,3.675295 0.912546,0.885462 1.706466,1.609931 1.764265,1.609931 0.0578,0 2.437484,-2.318323 5.288185,-5.151828 6.320536,-6.2824083 8.586238,-8.3589626 9.120359,-8.3589626 0.617587,0 2.173346,1.4046677 3.426348,3.0935922 0.632786,0.8529342 1.412721,2.3866278 1.410853,2.7743572 -0.0037,0.759422 -1.029052,2.2268232 -3.347689,4.7907412 -3.9468,4.36432 -15.782055,15.857814 -16.329348,15.857814 -0.05554,0 -0.55147,-0.372605 -1.102064,-0.828012 z m 2.029378,-1.93248 C 13.430439,25.978098 27.471177,11.879252 29.462119,9.5402805 l 0.62332,-0.7322808 -0.244513,-0.463906 c -0.257212,-0.487999 -3.696528,-3.9650272 -3.864543,-3.9069184 -0.05367,0.018561 -2.358244,2.255558 -5.121281,4.9711041 -6.686013,6.5710946 -8.802025,8.5102996 -9.286224,8.5102996 -0.34103,0 -1.479242,-0.977717 -3.6907452,-3.170325 L 5.7315586,12.620019 3.478909,14.79579 1.2262593,16.971561 5.3098105,21.020276 c 4.2487656,4.21252 5.1334875,5.02234 5.9757175,5.469795 0.61544,0.32697 0.780944,0.331188 1.26456,0.03223 z"
       id="path1396"
       inkscape:connector-curvature="0"
       transform="matrix(0.26458333,0,0,0.26458333,59.26667,69.760727)" />
    <path
       style="opacity:0;fill:#00ffff;fill-opacity:0.65581396;stroke-width:0.12626907"
       d="M 10.52071,28.454783 C 7.9111807,26.296391 3.2664113,21.565535 1.9738173,19.74948 1.0288236,18.421792 0.70487291,17.634036 0.70163307,16.655888 0.6995233,16.018921 0.77155863,15.69372 1.0233353,15.203578 1.5983151,14.084245 3.8735881,11.765097 5.1303688,11.017348 L 5.6656006,10.6989 6.1405213,10.991855 c 0.6346795,0.391502 2.1307109,1.716637 4.1492797,3.675295 0.912546,0.885462 1.706466,1.609931 1.764265,1.609931 0.0578,0 2.437484,-2.318323 5.288185,-5.151828 6.320536,-6.2824083 8.586238,-8.3589626 9.120359,-8.3589626 0.617587,0 2.173346,1.4046677 3.426348,3.0935922 0.632786,0.8529342 1.412721,2.3866278 1.410853,2.7743572 -0.0037,0.759422 -1.029052,2.2268232 -3.347689,4.7907412 -3.9468,4.36432 -15.782055,15.857814 -16.329348,15.857814 -0.05554,0 -0.55147,-0.372605 -1.102064,-0.828012 z m 2.029378,-1.93248 C 13.430439,25.978098 27.471177,11.879252 29.462119,9.5402805 l 0.62332,-0.7322808 -0.244513,-0.463906 c -0.257212,-0.487999 -3.696528,-3.9650272 -3.864543,-3.9069184 -0.05367,0.018561 -2.358244,2.255558 -5.121281,4.9711041 -6.686013,6.5710946 -8.802025,8.5102996 -9.286224,8.5102996 -0.34103,0 -1.479242,-0.977717 -3.6907452,-3.170325 L 5.7315586,12.620019 3.478909,14.79579 1.2262593,16.971561 5.3098105,21.020276 c 4.2487656,4.21252 5.1334875,5.02234 5.9757175,5.469795 0.61544,0.32697 0.780944,0.331188 1.26456,0.03223 z"
       id="path1398"
       inkscape:connector-curvature="0"
       transform="matrix(0.26458333,0,0,0.26458333,59.26667,69.760727)" />
    <path
       style="opacity:0;fill:#00ffff;fill-opacity:0.65581396;stroke-width:0.12626907"
       d="m -36.017547,36.199297 c -0.478555,-0.317644 -2.558767,-2.271121 -5.143132,-4.829792 l -4.339562,-4.296419 2.191662,-2.109224 2.191662,-2.109223 2.274169,2.2452 c 1.250793,1.23486 2.552378,2.433947 2.892412,2.664637 0.613066,0.415925 0.621594,0.417633 1.01848,0.203896 0.717936,-0.386635 3.067629,-2.569317 8.574961,-7.965475 2.977403,-2.917299 5.450776,-5.318937 5.496385,-5.336973 0.153049,-0.06053 3.481921,3.31545 3.729159,3.781928 l 0.24433,0.460991 -0.494571,0.603559 c -1.206814,1.472757 -8.996956,9.388597 -14.03673,14.26322 -2.571578,2.487309 -3.115882,2.957048 -3.426443,2.957048 -0.223009,0 -0.687414,-0.211208 -1.172782,-0.533373 z"
       id="path1404"
       inkscape:connector-curvature="0"
       transform="matrix(0.26458333,0,0,0.26458333,59.26667,69.760727)" />
    <path
       style="opacity:0;fill:#00ffff;fill-opacity:0.65581396;stroke-width:0.12626907"
       d="m -36.017547,36.199297 c -0.478555,-0.317644 -2.558767,-2.271121 -5.143132,-4.829792 l -4.339562,-4.296419 2.191662,-2.109224 2.191662,-2.109223 2.274169,2.2452 c 1.250793,1.23486 2.552378,2.433947 2.892412,2.664637 0.613066,0.415925 0.621594,0.417633 1.01848,0.203896 0.717936,-0.386635 3.067629,-2.569317 8.574961,-7.965475 2.977403,-2.917299 5.450776,-5.318937 5.496385,-5.336973 0.153049,-0.06053 3.481921,3.31545 3.729159,3.781928 l 0.24433,0.460991 -0.494571,0.603559 c -1.206814,1.472757 -8.996956,9.388597 -14.03673,14.26322 -2.571578,2.487309 -3.115882,2.957048 -3.426443,2.957048 -0.223009,0 -0.687414,-0.211208 -1.172782,-0.533373 z"
       id="path1406"
       inkscape:connector-curvature="0"
       transform="matrix(0.26458333,0,0,0.26458333,59.26667,69.760727)" />
    <path
       style="opacity:0;fill:#00ffff;fill-opacity:0.65581396;stroke-width:0.12626907"
       d="m -36.361987,38.547017 c -1.348201,-1.078693 -5.762702,-5.395327 -7.129769,-6.971702 -3.471866,-4.00344 -3.560976,-5.55441 -0.492668,-8.574989 1.100766,-1.083644 2.520646,-2.177559 2.826428,-2.177559 0.313265,0 2.136832,1.543406 4.250034,3.597086 l 2.05973,2.001714 1.346467,-1.315738 c 0.740557,-0.723656 3.05248,-2.998289 5.137607,-5.054739 5.402517,-5.328216 7.463025,-7.183274 7.97883,-7.183274 0.652814,0 2.496351,1.690406 3.573668,3.276827 0.625858,0.921616 1.266643,2.23987 1.266781,2.606084 1.64e-4,0.435811 -0.709853,1.696119 -1.523001,2.703386 -1.369728,1.696715 -4.427834,4.904413 -8.849562,9.28245 -5.417435,5.363905 -8.952718,8.647757 -9.309883,8.647757 -0.04849,0 -0.559088,-0.376787 -1.134662,-0.837303 z m 2.066251,-1.922817 c 0.875163,-0.540142 14.975451,-14.697006 16.912031,-16.97989 l 0.623319,-0.734785 -0.244512,-0.463906 c -0.25883,-0.491068 -3.696618,-3.964418 -3.866917,-3.906918 -0.05497,0.01856 -2.353312,2.249769 -5.107422,4.958241 -6.648927,6.538749 -8.813675,8.523162 -9.29771,8.523162 -0.341345,0 -1.480087,-0.978522 -3.691328,-3.171964 l -2.147158,-2.129874 -2.252224,2.17741 -2.252223,2.17741 4.083709,4.05173 c 4.113797,4.081583 5.398183,5.251682 6.1005,5.557668 0.516432,0.225 0.695802,0.215829 1.139935,-0.05828 z"
       id="path1408"
       inkscape:connector-curvature="0"
       transform="matrix(0.26458333,0,0,0.26458333,59.26667,69.760727)" />
    <path
       style="opacity:0;fill:#ffff00;fill-opacity:0.65581396;stroke-width:0.12626907"
       d="m -36.361987,38.547017 c -1.348201,-1.078693 -5.762702,-5.395327 -7.129769,-6.971702 -3.471866,-4.00344 -3.560976,-5.55441 -0.492668,-8.574989 1.100766,-1.083644 2.520646,-2.177559 2.826428,-2.177559 0.313265,0 2.136832,1.543406 4.250034,3.597086 l 2.05973,2.001714 1.346467,-1.315738 c 0.740557,-0.723656 3.05248,-2.998289 5.137607,-5.054739 5.402517,-5.328216 7.463025,-7.183274 7.97883,-7.183274 0.652814,0 2.496351,1.690406 3.573668,3.276827 0.625858,0.921616 1.266643,2.23987 1.266781,2.606084 1.64e-4,0.435811 -0.709853,1.696119 -1.523001,2.703386 -1.369728,1.696715 -4.427834,4.904413 -8.849562,9.28245 -5.417435,5.363905 -8.952718,8.647757 -9.309883,8.647757 -0.04849,0 -0.559088,-0.376787 -1.134662,-0.837303 z m 2.066251,-1.922817 c 0.875163,-0.540142 14.975451,-14.697006 16.912031,-16.97989 l 0.623319,-0.734785 -0.244512,-0.463906 c -0.25883,-0.491068 -3.696618,-3.964418 -3.866917,-3.906918 -0.05497,0.01856 -2.353312,2.249769 -5.107422,4.958241 -6.648927,6.538749 -8.813675,8.523162 -9.29771,8.523162 -0.341345,0 -1.480087,-0.978522 -3.691328,-3.171964 l -2.147158,-2.129874 -2.252224,2.17741 -2.252223,2.17741 4.083709,4.05173 c 4.113797,4.081583 5.398183,5.251682 6.1005,5.557668 0.516432,0.225 0.695802,0.215829 1.139935,-0.05828 z"
       id="path1410"
       inkscape:connector-curvature="0"
       transform="matrix(0.26458333,0,0,0.26458333,59.26667,69.760727)" />
    <path
       style="opacity:0;fill:#787aad;fill-opacity:0.65581393;stroke-width:0.12626907"
       d="m -36.017547,36.199297 c -0.478555,-0.317644 -2.558767,-2.271121 -5.143132,-4.829792 l -4.339562,-4.296419 2.191662,-2.109224 2.191662,-2.109223 2.274169,2.2452 c 1.250793,1.23486 2.552378,2.433947 2.892412,2.664637 0.613066,0.415925 0.621594,0.417633 1.01848,0.203896 0.717936,-0.386635 3.067629,-2.569317 8.574961,-7.965475 2.977403,-2.917299 5.450776,-5.318937 5.496385,-5.336973 0.153049,-0.06053 3.481921,3.31545 3.729159,3.781928 l 0.24433,0.460991 -0.494571,0.603559 c -1.206814,1.472757 -8.996956,9.388597 -14.03673,14.26322 -2.571578,2.487309 -3.115882,2.957048 -3.426443,2.957048 -0.223009,0 -0.687414,-0.211208 -1.172782,-0.533373 z"
       id="path1414"
       inkscape:connector-curvature="0"
       transform="matrix(0.26458333,0,0,0.26458333,59.26667,69.760727)" />
    <path
       style="opacity:0;fill:#787aad;fill-opacity:0.65581396;stroke-width:0.12626907"
       d="m -36.017547,36.199297 c -0.478555,-0.317644 -2.558767,-2.271121 -5.143132,-4.829792 l -4.339562,-4.296419 2.191662,-2.109224 2.191662,-2.109223 2.274169,2.2452 c 1.250793,1.23486 2.552378,2.433947 2.892412,2.664637 0.613066,0.415925 0.621594,0.417633 1.01848,0.203896 0.717936,-0.386635 3.067629,-2.569317 8.574961,-7.965475 2.977403,-2.917299 5.450776,-5.318937 5.496385,-5.336973 0.153049,-0.06053 3.481921,3.31545 3.729159,3.781928 l 0.24433,0.460991 -0.494571,0.603559 c -1.206814,1.472757 -8.996956,9.388597 -14.03673,14.26322 -2.571578,2.487309 -3.115882,2.957048 -3.426443,2.957048 -0.223009,0 -0.687414,-0.211208 -1.172782,-0.533373 z"
       id="path1416"
       inkscape:connector-curvature="0"
       transform="matrix(0.26458333,0,0,0.26458333,59.26667,69.760727)" />
    <path
       style="opacity:0;fill:#787aad;fill-opacity:0.65581396;stroke-width:0.12626907"
       d="m -36.361987,38.547017 c -1.348201,-1.078693 -5.762702,-5.395327 -7.129769,-6.971702 -3.471866,-4.00344 -3.560976,-5.55441 -0.492668,-8.574989 1.100766,-1.083644 2.520646,-2.177559 2.826428,-2.177559 0.313265,0 2.136832,1.543406 4.250034,3.597086 l 2.05973,2.001714 1.346467,-1.315738 c 0.740557,-0.723656 3.05248,-2.998289 5.137607,-5.054739 5.402517,-5.328216 7.463025,-7.183274 7.97883,-7.183274 0.652814,0 2.496351,1.690406 3.573668,3.276827 0.625858,0.921616 1.266643,2.23987 1.266781,2.606084 1.64e-4,0.435811 -0.709853,1.696119 -1.523001,2.703386 -1.369728,1.696715 -4.427834,4.904413 -8.849562,9.28245 -5.417435,5.363905 -8.952718,8.647757 -9.309883,8.647757 -0.04849,0 -0.559088,-0.376787 -1.134662,-0.837303 z m 2.066251,-1.922817 c 0.875163,-0.540142 14.975451,-14.697006 16.912031,-16.97989 l 0.623319,-0.734785 -0.244512,-0.463906 c -0.25883,-0.491068 -3.696618,-3.964418 -3.866917,-3.906918 -0.05497,0.01856 -2.353312,2.249769 -5.107422,4.958241 -6.648927,6.538749 -8.813675,8.523162 -9.29771,8.523162 -0.341345,0 -1.480087,-0.978522 -3.691328,-3.171964 l -2.147158,-2.129874 -2.252224,2.17741 -2.252223,2.17741 4.083709,4.05173 c 4.113797,4.081583 5.398183,5.251682 6.1005,5.557668 0.516432,0.225 0.695802,0.215829 1.139935,-0.05828 z"
       id="path1418"
       inkscape:connector-curvature="0"
       transform="matrix(0.26458333,0,0,0.26458333,59.26667,69.760727)" />
    <path
       style="opacity:0;fill:#787aad;fill-opacity:0.65581396;stroke-width:0.12626907"
       d="m -36.361987,38.547017 c -1.348201,-1.078693 -5.762702,-5.395327 -7.129769,-6.971702 -3.471866,-4.00344 -3.560976,-5.55441 -0.492668,-8.574989 1.100766,-1.083644 2.520646,-2.177559 2.826428,-2.177559 0.313265,0 2.136832,1.543406 4.250034,3.597086 l 2.05973,2.001714 1.346467,-1.315738 c 0.740557,-0.723656 3.05248,-2.998289 5.137607,-5.054739 5.402517,-5.328216 7.463025,-7.183274 7.97883,-7.183274 0.652814,0 2.496351,1.690406 3.573668,3.276827 0.625858,0.921616 1.266643,2.23987 1.266781,2.606084 1.64e-4,0.435811 -0.709853,1.696119 -1.523001,2.703386 -1.369728,1.696715 -4.427834,4.904413 -8.849562,9.28245 -5.417435,5.363905 -8.952718,8.647757 -9.309883,8.647757 -0.04849,0 -0.559088,-0.376787 -1.134662,-0.837303 z m 2.066251,-1.922817 c 0.875163,-0.540142 14.975451,-14.697006 16.912031,-16.97989 l 0.623319,-0.734785 -0.244512,-0.463906 c -0.25883,-0.491068 -3.696618,-3.964418 -3.866917,-3.906918 -0.05497,0.01856 -2.353312,2.249769 -5.107422,4.958241 -6.648927,6.538749 -8.813675,8.523162 -9.29771,8.523162 -0.341345,0 -1.480087,-0.978522 -3.691328,-3.171964 l -2.147158,-2.129874 -2.252224,2.17741 -2.252223,2.17741 4.083709,4.05173 c 4.113797,4.081583 5.398183,5.251682 6.1005,5.557668 0.516432,0.225 0.695802,0.215829 1.139935,-0.05828 z"
       id="path1420"
       inkscape:connector-curvature="0"
       transform="matrix(0.26458333,0,0,0.26458333,59.26667,69.760727)" />
    <path
       style="opacity:0;fill:#787aad;fill-opacity:0.65581396;stroke-width:0.12626907"
       d="m -36.361987,38.547017 c -1.348201,-1.078693 -5.762702,-5.395327 -7.129769,-6.971702 -3.471866,-4.00344 -3.560976,-5.55441 -0.492668,-8.574989 1.100766,-1.083644 2.520646,-2.177559 2.826428,-2.177559 0.313265,0 2.136832,1.543406 4.250034,3.597086 l 2.05973,2.001714 1.346467,-1.315738 c 0.740557,-0.723656 3.05248,-2.998289 5.137607,-5.054739 5.402517,-5.328216 7.463025,-7.183274 7.97883,-7.183274 0.652814,0 2.496351,1.690406 3.573668,3.276827 0.625858,0.921616 1.266643,2.23987 1.266781,2.606084 1.64e-4,0.435811 -0.709853,1.696119 -1.523001,2.703386 -1.369728,1.696715 -4.427834,4.904413 -8.849562,9.28245 -5.417435,5.363905 -8.952718,8.647757 -9.309883,8.647757 -0.04849,0 -0.559088,-0.376787 -1.134662,-0.837303 z m 2.066251,-1.922817 c 0.875163,-0.540142 14.975451,-14.697006 16.912031,-16.97989 l 0.623319,-0.734785 -0.244512,-0.463906 c -0.25883,-0.491068 -3.696618,-3.964418 -3.866917,-3.906918 -0.05497,0.01856 -2.353312,2.249769 -5.107422,4.958241 -6.648927,6.538749 -8.813675,8.523162 -9.29771,8.523162 -0.341345,0 -1.480087,-0.978522 -3.691328,-3.171964 l -2.147158,-2.129874 -2.252224,2.17741 -2.252223,2.17741 4.083709,4.05173 c 4.113797,4.081583 5.398183,5.251682 6.1005,5.557668 0.516432,0.225 0.695802,0.215829 1.139935,-0.05828 z"
       id="path1422"
       inkscape:connector-curvature="0"
       transform="matrix(0.26458333,0,0,0.26458333,59.26667,69.760727)" />
    <path
       style="opacity:0;fill:#787aad;fill-opacity:0.65581396;stroke-width:0.12626907"
       d="m 11.525302,27.53042 c -0.03411,-0.130431 -0.199252,-0.299676 -0.366986,-0.3761 -0.167734,-0.07643 -0.304971,-0.225404 -0.304971,-0.331065 0,-0.105661 -0.05086,-0.192111 -0.113023,-0.192111 -0.158572,0 -1.2759367,-1.0714 -1.2759367,-1.223448 0,-0.06874 -0.1420527,-0.189698 -0.3156726,-0.268806 C 8.9750927,25.059784 8.83304,24.907204 8.83304,24.799825 8.83304,24.692444 8.6958494,24.552428 8.528172,24.488678 8.3604947,24.424927 8.1862023,24.25587 8.1408558,24.112996 8.0955093,23.970122 7.9757869,23.853225 7.874806,23.853225 c -0.100981,0 -0.2454703,-0.135787 -0.3210877,-0.301749 C 7.478101,23.385514 7.2804455,23.187859 7.1144836,23.112241 6.9485219,23.036624 6.8127349,22.888306 6.8127349,22.782645 c 0,-0.105661 -0.054862,-0.192111 -0.1219149,-0.192111 -0.1465941,0 -1.8983902,-1.733093 -1.8983902,-1.878122 0,-0.05591 -0.1371243,-0.164125 -0.3047207,-0.240487 C 4.3201126,20.395564 4.1458204,20.215979 4.1003928,20.07285 4.0549654,19.92972 3.9349884,19.812615 3.8337775,19.812615 c -0.1012109,0 -0.2380282,-0.142053 -0.3040384,-0.315673 -0.06601,-0.17362 -0.2078747,-0.315673 -0.3152545,-0.315673 -0.1073797,0 -0.2571045,-0.135787 -0.3327219,-0.301749 C 2.8061455,18.713558 2.60849,18.515903 2.4425281,18.440286 2.2765663,18.364668 2.1407794,18.22547 2.1407794,18.130957 c 0,-0.09451 -0.1371243,-0.23432 -0.3047208,-0.310683 C 1.6684622,17.743913 1.4961171,17.570464 1.4530695,17.434833 1.4100219,17.299202 1.2556608,17.157075 1.110045,17.118996 0.92746113,17.071249 0.86997393,16.985432 0.9248233,16.842497 c 0.0437439,-0.113996 0.0795344,-0.281221 0.0795344,-0.371614 0,-0.09039 0.117859,-0.19517 0.2619089,-0.23284 0.1440499,-0.03767 0.291356,-0.181096 0.3273468,-0.318725 0.035991,-0.137629 0.1780435,-0.279682 0.3156727,-0.315672 0.1376291,-0.03599 0.2812181,-0.183919 0.3190866,-0.328728 0.037869,-0.14481 0.204115,-0.297239 0.3694365,-0.338732 0.1857862,-0.04663 0.3005846,-0.167857 0.3005846,-0.317417 0,-0.144327 0.1323195,-0.292283 0.3278914,-0.366639 0.1803404,-0.06856 0.356057,-0.232369 0.3904813,-0.364008 0.034424,-0.131639 0.1751955,-0.268791 0.3128247,-0.304781 0.1376291,-0.03599 0.2797971,-0.178485 0.3159289,-0.316653 0.036132,-0.138168 0.1984385,-0.284531 0.3606816,-0.325252 0.1795514,-0.04506 0.3107665,-0.184628 0.3353096,-0.356644 0.02332,-0.163444 0.1468064,-0.302621 0.2928602,-0.330072 0.138896,-0.02611 0.2848022,-0.09852 0.324236,-0.160924 0.1029606,-0.162932 0.8753202,0.25205 0.8753202,0.470302 0,0.100575 0.1372369,0.245392 0.3049709,0.321817 0.1677339,0.07642 0.3339803,0.249886 0.3694364,0.385471 0.035456,0.135584 0.1770712,0.275964 0.3147004,0.311955 0.1376292,0.03599 0.2784001,0.173142 0.3128246,0.304781 0.034424,0.131639 0.2101409,0.295443 0.3904813,0.364008 0.1803403,0.06857 0.3278915,0.212708 0.3278915,0.320318 0,0.10761 0.1342855,0.24671 0.2984123,0.309111 0.1641268,0.0624 0.3303733,0.235674 0.3694365,0.385052 0.039063,0.149378 0.1836297,0.301044 0.3212589,0.337035 0.1376292,0.03599 0.2796819,0.178043 0.3156726,0.315672 0.035991,0.137629 0.1814151,0.280564 0.3231649,0.317632 0.14175,0.03707 0.292881,0.178159 0.335848,0.313535 0.04297,0.135377 0.215312,0.298298 0.382989,0.362049 0.167678,0.06375 0.304868,0.203954 0.304868,0.311565 0,0.532672 1.571209,0.516987 1.774502,-0.01772 0.06231,-0.163876 0.201328,-0.297957 0.308938,-0.297957 0.10761,0 0.247814,-0.13719 0.311565,-0.304868 0.06375,-0.167678 0.229901,-0.341048 0.369222,-0.385266 0.139323,-0.04422 0.289492,-0.194389 0.333712,-0.333711 0.04422,-0.139322 0.217588,-0.305472 0.385265,-0.369223 0.167678,-0.06375 0.304868,-0.203955 0.304868,-0.311564 0,-0.10761 0.142053,-0.249663 0.315673,-0.315673 0.17362,-0.06601 0.315673,-0.207875 0.315673,-0.315255 0,-0.107379 0.14096,-0.259461 0.313245,-0.33796 0.172286,-0.0785 0.343841,-0.23912 0.381235,-0.356938 0.03739,-0.117817 0.208948,-0.278439 0.381234,-0.356938 0.172285,-0.0785 0.313245,-0.23058 0.313245,-0.33796 0,-0.107379 0.142053,-0.249244 0.315673,-0.315254 0.17362,-0.06601 0.315673,-0.208063 0.315673,-0.315673 0,-0.10761 0.142052,-0.249662 0.315672,-0.315673 0.17362,-0.06601 0.315673,-0.207874 0.315673,-0.315254 0,-0.10738 0.140961,-0.259462 0.313246,-0.33796 0.172285,-0.0785 0.343841,-0.239121 0.381234,-0.356938 0.03739,-0.117818 0.208949,-0.27844 0.381234,-0.356938 0.172285,-0.0785 0.313246,-0.23058 0.313246,-0.33796 0,-0.10738 0.142053,-0.249244 0.315673,-0.315255 0.173619,-0.06601 0.315672,-0.207874 0.315672,-0.3152541 0,-0.1073797 0.140961,-0.2594619 0.313246,-0.3379602 0.172285,-0.078498 0.345654,-0.2448369 0.385266,-0.3696411 0.03961,-0.1248043 0.186011,-0.2630962 0.325333,-0.3073152 0.139322,-0.044219 0.305472,-0.2175888 0.369222,-0.3852662 0.06375,-0.1676774 0.203955,-0.304868 0.311566,-0.304868 0.10761,0 0.249663,-0.1420527 0.315672,-0.3156726 0.06601,-0.17362 0.208063,-0.3156727 0.315673,-0.3156727 0.10761,0 0.249663,-0.1420527 0.315673,-0.3156727 0.06601,-0.1736199 0.207874,-0.3156726 0.315254,-0.3156726 0.10738,0 0.257104,-0.135787 0.332722,-0.3017488 0.07562,-0.1659619 0.273273,-0.3636174 0.439234,-0.4392346 0.165962,-0.075617 0.301749,-0.2253422 0.301749,-0.3327219 0,-0.1073798 0.142053,-0.2492443 0.315673,-0.3152545 0.17362,-0.06601 0.315673,-0.2080629 0.315673,-0.3156727 0,-0.1076098 0.13719,-0.2478139 0.304868,-0.3115647 0.167677,-0.063751 0.341047,-0.2299012 0.385265,-0.369223 0.04422,-0.1393218 0.188228,-0.287536 0.320019,-0.3293648 0.131791,-0.041829 0.278081,-0.1972338 0.32509,-0.3453443 0.08279,-0.2608505 0.09104,-0.2586691 0.26303,0.069593 0.09766,0.1863869 0.262383,0.3388853 0.366057,0.3388853 0.103673,0 0.242504,0.1420527 0.308514,0.3156727 0.06601,0.1736199 0.208062,0.3156727 0.315673,0.3156727 0.10761,0 0.249663,0.1420527 0.315672,0.3156726 0.07348,0.1932624 0.219159,0.3156727 0.375682,0.3156727 0.172388,0 0.255664,0.083139 0.255664,0.2552452 0,0.1465867 0.128454,0.3137733 0.301749,0.3927312 0.165961,0.075617 0.363617,0.2732727 0.439234,0.4392346 0.07562,0.1659618 0.225342,0.3017488 0.332722,0.3017488 0.10738,0 0.249245,0.1420527 0.315254,0.3156726 0.07348,0.1932624 0.219159,0.3156727 0.375682,0.3156727 0.172526,0 0.255664,0.083138 0.255664,0.2556634 0,0.1565233 0.12241,0.3022037 0.315672,0.3756819 0.415831,0.1580988 0.454284,0.8181821 0.05377,0.9229204 -0.144051,0.03767 -0.290919,0.1794233 -0.326376,0.3150076 -0.03546,0.1355843 -0.201702,0.3090462 -0.369435,0.3854709 -0.167735,0.076425 -0.304972,0.2268094 -0.304972,0.3341894 0,0.10738 -0.13719,0.247396 -0.304867,0.311147 -0.167678,0.06375 -0.340023,0.226672 -0.38299,0.362048 -0.04297,0.135376 -0.194098,0.276467 -0.335848,0.313535 -0.141749,0.03707 -0.286736,0.17833 -0.322193,0.313914 -0.03546,0.135585 -0.201702,0.309046 -0.369435,0.385471 -0.167735,0.07643 -0.304972,0.22681 -0.304972,0.33419 0,0.10738 -0.142052,0.249244 -0.315672,0.315255 -0.17362,0.06601 -0.315673,0.208062 -0.315673,0.315672 0,0.10761 -0.13719,0.247814 -0.304868,0.311565 -0.167678,0.06375 -0.340022,0.226673 -0.382989,0.362049 -0.04297,0.135376 -0.194098,0.276466 -0.335848,0.313535 -0.14175,0.03707 -0.286737,0.178329 -0.322193,0.313914 -0.03546,0.135584 -0.201702,0.309046 -0.369436,0.385471 -0.167734,0.07642 -0.304971,0.226811 -0.304971,0.33419 0,0.107379 -0.13719,0.247395 -0.304868,0.311147 -0.167678,0.06375 -0.341969,0.232808 -0.387316,0.375681 -0.04535,0.142875 -0.165069,0.259772 -0.266051,0.259772 -0.10098,0 -0.24613,0.137237 -0.322555,0.30497 -0.07643,0.167734 -0.249887,0.333981 -0.385471,0.369436 -0.135584,0.03546 -0.275526,0.175399 -0.310983,0.310983 -0.03545,0.135584 -0.201702,0.309046 -0.369435,0.385471 -0.167735,0.07643 -0.304972,0.226811 -0.304972,0.33419 0,0.10738 -0.13719,0.247396 -0.304867,0.311147 -0.167678,0.06375 -0.340023,0.226672 -0.38299,0.362049 -0.04297,0.135375 -0.194098,0.276466 -0.335848,0.313535 -0.141749,0.03707 -0.286736,0.178329 -0.322193,0.313913 -0.03545,0.135584 -0.201702,0.309046 -0.369435,0.385471 -0.167735,0.07643 -0.304972,0.226811 -0.304972,0.33419 0,0.10738 -0.142052,0.249245 -0.315672,0.315255 -0.17362,0.06601 -0.315673,0.208062 -0.315673,0.315672 0,0.107611 -0.147552,0.251753 -0.327892,0.320318 -0.18034,0.06857 -0.356057,0.23237 -0.390481,0.364009 -0.03442,0.131638 -0.175195,0.26879 -0.312825,0.304781 -0.137628,0.03599 -0.280563,0.181415 -0.317631,0.323165 -0.03707,0.14175 -0.178159,0.292881 -0.313535,0.335848 -0.135377,0.04297 -0.298298,0.215311 -0.362049,0.382989 -0.06375,0.167678 -0.203766,0.304868 -0.311147,0.304868 -0.107379,0 -0.257764,0.137237 -0.33419,0.304971 -0.07642,0.167734 -0.249886,0.333981 -0.38547,0.369436 -0.135584,0.03546 -0.275527,0.175399 -0.310983,0.310983 -0.03545,0.135584 -0.201703,0.309046 -0.369436,0.38547 -0.167734,0.07643 -0.304971,0.226811 -0.304971,0.33419 0,0.107381 -0.13719,0.247397 -0.304868,0.311148 -0.167678,0.06375 -0.34197,0.232807 -0.387317,0.375682 -0.04534,0.142873 -0.165069,0.25977 -0.26605,0.25977 -0.10098,0 -0.24613,0.137237 -0.322555,0.304972 -0.07643,0.167733 -0.249887,0.33398 -0.385471,0.369435 -0.135584,0.03546 -0.275526,0.175399 -0.310983,0.310983 -0.03545,0.135584 -0.201702,0.309046 -0.369435,0.385471 -0.167735,0.07643 -0.304972,0.226811 -0.304972,0.33419 0,0.10738 -0.13719,0.247396 -0.304868,0.311147 -0.167677,0.06375 -0.341969,0.232807 -0.387316,0.375682 -0.111402,0.350998 -0.818228,0.368597 -0.908702,0.02262 z"
       id="path831"
       inkscape:connector-curvature="0"
       transform="matrix(0.26458333,0,0,0.26458333,59.26667,69.760727)" />
    <path
       style="opacity:0;fill:#ffff00;fill-opacity:0.65581396;stroke-width:0.12626907"
       d="m 11.525302,27.53042 c -0.03411,-0.130431 -0.199252,-0.299676 -0.366986,-0.3761 -0.167734,-0.07643 -0.304971,-0.225404 -0.304971,-0.331065 0,-0.105661 -0.05086,-0.192111 -0.113023,-0.192111 -0.158572,0 -1.2759367,-1.0714 -1.2759367,-1.223448 0,-0.06874 -0.1420527,-0.189698 -0.3156726,-0.268806 C 8.9750927,25.059784 8.83304,24.907204 8.83304,24.799825 8.83304,24.692444 8.6958494,24.552428 8.528172,24.488678 8.3604947,24.424927 8.1862023,24.25587 8.1408558,24.112996 8.0955093,23.970122 7.9757869,23.853225 7.874806,23.853225 c -0.100981,0 -0.2454703,-0.135787 -0.3210877,-0.301749 C 7.478101,23.385514 7.2804455,23.187859 7.1144836,23.112241 6.9485219,23.036624 6.8127349,22.888306 6.8127349,22.782645 c 0,-0.105661 -0.054862,-0.192111 -0.1219149,-0.192111 -0.1465941,0 -1.8983902,-1.733093 -1.8983902,-1.878122 0,-0.05591 -0.1371243,-0.164125 -0.3047207,-0.240487 C 4.3201126,20.395564 4.1458204,20.215979 4.1003928,20.07285 4.0549654,19.92972 3.9349884,19.812615 3.8337775,19.812615 c -0.1012109,0 -0.2380282,-0.142053 -0.3040384,-0.315673 -0.06601,-0.17362 -0.2078747,-0.315673 -0.3152545,-0.315673 -0.1073797,0 -0.2571045,-0.135787 -0.3327219,-0.301749 C 2.8061455,18.713558 2.60849,18.515903 2.4425281,18.440286 2.2765663,18.364668 2.1407794,18.22547 2.1407794,18.130957 c 0,-0.09451 -0.1371243,-0.23432 -0.3047208,-0.310683 C 1.6684622,17.743913 1.4961171,17.570464 1.4530695,17.434833 1.4100219,17.299202 1.2556608,17.157075 1.110045,17.118996 0.92746113,17.071249 0.86997393,16.985432 0.9248233,16.842497 c 0.0437439,-0.113996 0.0795344,-0.281221 0.0795344,-0.371614 0,-0.09039 0.117859,-0.19517 0.2619089,-0.23284 0.1440499,-0.03767 0.291356,-0.181096 0.3273468,-0.318725 0.035991,-0.137629 0.1780435,-0.279682 0.3156727,-0.315672 0.1376291,-0.03599 0.2812181,-0.183919 0.3190866,-0.328728 0.037869,-0.14481 0.204115,-0.297239 0.3694365,-0.338732 0.1857862,-0.04663 0.3005846,-0.167857 0.3005846,-0.317417 0,-0.144327 0.1323195,-0.292283 0.3278914,-0.366639 0.1803404,-0.06856 0.356057,-0.232369 0.3904813,-0.364008 0.034424,-0.131639 0.1751955,-0.268791 0.3128247,-0.304781 0.1376291,-0.03599 0.2797971,-0.178485 0.3159289,-0.316653 0.036132,-0.138168 0.1984385,-0.284531 0.3606816,-0.325252 0.1795514,-0.04506 0.3107665,-0.184628 0.3353096,-0.356644 0.02332,-0.163444 0.1468064,-0.302621 0.2928602,-0.330072 0.138896,-0.02611 0.2848022,-0.09852 0.324236,-0.160924 0.1029606,-0.162932 0.8753202,0.25205 0.8753202,0.470302 0,0.100575 0.1372369,0.245392 0.3049709,0.321817 0.1677339,0.07642 0.3339803,0.249886 0.3694364,0.385471 0.035456,0.135584 0.1770712,0.275964 0.3147004,0.311955 0.1376292,0.03599 0.2784001,0.173142 0.3128246,0.304781 0.034424,0.131639 0.2101409,0.295443 0.3904813,0.364008 0.1803403,0.06857 0.3278915,0.212708 0.3278915,0.320318 0,0.10761 0.1342855,0.24671 0.2984123,0.309111 0.1641268,0.0624 0.3303733,0.235674 0.3694365,0.385052 0.039063,0.149378 0.1836297,0.301044 0.3212589,0.337035 0.1376292,0.03599 0.2796819,0.178043 0.3156726,0.315672 0.035991,0.137629 0.1814151,0.280564 0.3231649,0.317632 0.14175,0.03707 0.292881,0.178159 0.335848,0.313535 0.04297,0.135377 0.215312,0.298298 0.382989,0.362049 0.167678,0.06375 0.304868,0.203954 0.304868,0.311565 0,0.532672 1.571209,0.516987 1.774502,-0.01772 0.06231,-0.163876 0.201328,-0.297957 0.308938,-0.297957 0.10761,0 0.247814,-0.13719 0.311565,-0.304868 0.06375,-0.167678 0.229901,-0.341048 0.369222,-0.385266 0.139323,-0.04422 0.289492,-0.194389 0.333712,-0.333711 0.04422,-0.139322 0.217588,-0.305472 0.385265,-0.369223 0.167678,-0.06375 0.304868,-0.203955 0.304868,-0.311564 0,-0.10761 0.142053,-0.249663 0.315673,-0.315673 0.17362,-0.06601 0.315673,-0.207875 0.315673,-0.315255 0,-0.107379 0.14096,-0.259461 0.313245,-0.33796 0.172286,-0.0785 0.343841,-0.23912 0.381235,-0.356938 0.03739,-0.117817 0.208948,-0.278439 0.381234,-0.356938 0.172285,-0.0785 0.313245,-0.23058 0.313245,-0.33796 0,-0.107379 0.142053,-0.249244 0.315673,-0.315254 0.17362,-0.06601 0.315673,-0.208063 0.315673,-0.315673 0,-0.10761 0.142052,-0.249662 0.315672,-0.315673 0.17362,-0.06601 0.315673,-0.207874 0.315673,-0.315254 0,-0.10738 0.140961,-0.259462 0.313246,-0.33796 0.172285,-0.0785 0.343841,-0.239121 0.381234,-0.356938 0.03739,-0.117818 0.208949,-0.27844 0.381234,-0.356938 0.172285,-0.0785 0.313246,-0.23058 0.313246,-0.33796 0,-0.10738 0.142053,-0.249244 0.315673,-0.315255 0.173619,-0.06601 0.315672,-0.207874 0.315672,-0.3152541 0,-0.1073797 0.140961,-0.2594619 0.313246,-0.3379602 0.172285,-0.078498 0.345654,-0.2448369 0.385266,-0.3696411 0.03961,-0.1248043 0.186011,-0.2630962 0.325333,-0.3073152 0.139322,-0.044219 0.305472,-0.2175888 0.369222,-0.3852662 0.06375,-0.1676774 0.203955,-0.304868 0.311566,-0.304868 0.10761,0 0.249663,-0.1420527 0.315672,-0.3156726 0.06601,-0.17362 0.208063,-0.3156727 0.315673,-0.3156727 0.10761,0 0.249663,-0.1420527 0.315673,-0.3156727 0.06601,-0.1736199 0.207874,-0.3156726 0.315254,-0.3156726 0.10738,0 0.257104,-0.135787 0.332722,-0.3017488 0.07562,-0.1659619 0.273273,-0.3636174 0.439234,-0.4392346 0.165962,-0.075617 0.301749,-0.2253422 0.301749,-0.3327219 0,-0.1073798 0.142053,-0.2492443 0.315673,-0.3152545 0.17362,-0.06601 0.315673,-0.2080629 0.315673,-0.3156727 0,-0.1076098 0.13719,-0.2478139 0.304868,-0.3115647 0.167677,-0.063751 0.341047,-0.2299012 0.385265,-0.369223 0.04422,-0.1393218 0.188228,-0.287536 0.320019,-0.3293648 0.131791,-0.041829 0.278081,-0.1972338 0.32509,-0.3453443 0.08279,-0.2608505 0.09104,-0.2586691 0.26303,0.069593 0.09766,0.1863869 0.262383,0.3388853 0.366057,0.3388853 0.103673,0 0.242504,0.1420527 0.308514,0.3156727 0.06601,0.1736199 0.208062,0.3156727 0.315673,0.3156727 0.10761,0 0.249663,0.1420527 0.315672,0.3156726 0.07348,0.1932624 0.219159,0.3156727 0.375682,0.3156727 0.172388,0 0.255664,0.083139 0.255664,0.2552452 0,0.1465867 0.128454,0.3137733 0.301749,0.3927312 0.165961,0.075617 0.363617,0.2732727 0.439234,0.4392346 0.07562,0.1659618 0.225342,0.3017488 0.332722,0.3017488 0.10738,0 0.249245,0.1420527 0.315254,0.3156726 0.07348,0.1932624 0.219159,0.3156727 0.375682,0.3156727 0.172526,0 0.255664,0.083138 0.255664,0.2556634 0,0.1565233 0.12241,0.3022037 0.315672,0.3756819 0.415831,0.1580988 0.454284,0.8181821 0.05377,0.9229204 -0.144051,0.03767 -0.290919,0.1794233 -0.326376,0.3150076 -0.03546,0.1355843 -0.201702,0.3090462 -0.369435,0.3854709 -0.167735,0.076425 -0.304972,0.2268094 -0.304972,0.3341894 0,0.10738 -0.13719,0.247396 -0.304867,0.311147 -0.167678,0.06375 -0.340023,0.226672 -0.38299,0.362048 -0.04297,0.135376 -0.194098,0.276467 -0.335848,0.313535 -0.141749,0.03707 -0.286736,0.17833 -0.322193,0.313914 -0.03546,0.135585 -0.201702,0.309046 -0.369435,0.385471 -0.167735,0.07643 -0.304972,0.22681 -0.304972,0.33419 0,0.10738 -0.142052,0.249244 -0.315672,0.315255 -0.17362,0.06601 -0.315673,0.208062 -0.315673,0.315672 0,0.10761 -0.13719,0.247814 -0.304868,0.311565 -0.167678,0.06375 -0.340022,0.226673 -0.382989,0.362049 -0.04297,0.135376 -0.194098,0.276466 -0.335848,0.313535 -0.14175,0.03707 -0.286737,0.178329 -0.322193,0.313914 -0.03546,0.135584 -0.201702,0.309046 -0.369436,0.385471 -0.167734,0.07642 -0.304971,0.226811 -0.304971,0.33419 0,0.107379 -0.13719,0.247395 -0.304868,0.311147 -0.167678,0.06375 -0.341969,0.232808 -0.387316,0.375681 -0.04535,0.142875 -0.165069,0.259772 -0.266051,0.259772 -0.10098,0 -0.24613,0.137237 -0.322555,0.30497 -0.07643,0.167734 -0.249887,0.333981 -0.385471,0.369436 -0.135584,0.03546 -0.275526,0.175399 -0.310983,0.310983 -0.03545,0.135584 -0.201702,0.309046 -0.369435,0.385471 -0.167735,0.07643 -0.304972,0.226811 -0.304972,0.33419 0,0.10738 -0.13719,0.247396 -0.304867,0.311147 -0.167678,0.06375 -0.340023,0.226672 -0.38299,0.362049 -0.04297,0.135375 -0.194098,0.276466 -0.335848,0.313535 -0.141749,0.03707 -0.286736,0.178329 -0.322193,0.313913 -0.03545,0.135584 -0.201702,0.309046 -0.369435,0.385471 -0.167735,0.07643 -0.304972,0.226811 -0.304972,0.33419 0,0.10738 -0.142052,0.249245 -0.315672,0.315255 -0.17362,0.06601 -0.315673,0.208062 -0.315673,0.315672 0,0.107611 -0.147552,0.251753 -0.327892,0.320318 -0.18034,0.06857 -0.356057,0.23237 -0.390481,0.364009 -0.03442,0.131638 -0.175195,0.26879 -0.312825,0.304781 -0.137628,0.03599 -0.280563,0.181415 -0.317631,0.323165 -0.03707,0.14175 -0.178159,0.292881 -0.313535,0.335848 -0.135377,0.04297 -0.298298,0.215311 -0.362049,0.382989 -0.06375,0.167678 -0.203766,0.304868 -0.311147,0.304868 -0.107379,0 -0.257764,0.137237 -0.33419,0.304971 -0.07642,0.167734 -0.249886,0.333981 -0.38547,0.369436 -0.135584,0.03546 -0.275527,0.175399 -0.310983,0.310983 -0.03545,0.135584 -0.201703,0.309046 -0.369436,0.38547 -0.167734,0.07643 -0.304971,0.226811 -0.304971,0.33419 0,0.107381 -0.13719,0.247397 -0.304868,0.311148 -0.167678,0.06375 -0.34197,0.232807 -0.387317,0.375682 -0.04534,0.142873 -0.165069,0.25977 -0.26605,0.25977 -0.10098,0 -0.24613,0.137237 -0.322555,0.304972 -0.07643,0.167733 -0.249887,0.33398 -0.385471,0.369435 -0.135584,0.03546 -0.275526,0.175399 -0.310983,0.310983 -0.03545,0.135584 -0.201702,0.309046 -0.369435,0.385471 -0.167735,0.07643 -0.304972,0.226811 -0.304972,0.33419 0,0.10738 -0.13719,0.247396 -0.304868,0.311147 -0.167677,0.06375 -0.341969,0.232807 -0.387316,0.375682 -0.111402,0.350998 -0.818228,0.368597 -0.908702,0.02262 z"
       id="path833"
       inkscape:connector-curvature="0"
       transform="matrix(0.26458333,0,0,0.26458333,59.26667,69.760727)" />
    <path
       style="opacity:0;fill:#ffff00;fill-opacity:0.65581396;stroke-width:0.12626907"
       d="m 11.525302,27.53042 c -0.03411,-0.130431 -0.199252,-0.299676 -0.366986,-0.3761 -0.167734,-0.07643 -0.304971,-0.225404 -0.304971,-0.331065 0,-0.105661 -0.05086,-0.192111 -0.113023,-0.192111 -0.158572,0 -1.2759367,-1.0714 -1.2759367,-1.223448 0,-0.06874 -0.1420527,-0.189698 -0.3156726,-0.268806 C 8.9750927,25.059784 8.83304,24.907204 8.83304,24.799825 8.83304,24.692444 8.6958494,24.552428 8.528172,24.488678 8.3604947,24.424927 8.1862023,24.25587 8.1408558,24.112996 8.0955093,23.970122 7.9757869,23.853225 7.874806,23.853225 c -0.100981,0 -0.2454703,-0.135787 -0.3210877,-0.301749 C 7.478101,23.385514 7.2804455,23.187859 7.1144836,23.112241 6.9485219,23.036624 6.8127349,22.888306 6.8127349,22.782645 c 0,-0.105661 -0.054862,-0.192111 -0.1219149,-0.192111 -0.1465941,0 -1.8983902,-1.733093 -1.8983902,-1.878122 0,-0.05591 -0.1371243,-0.164125 -0.3047207,-0.240487 C 4.3201126,20.395564 4.1458204,20.215979 4.1003928,20.07285 4.0549654,19.92972 3.9349884,19.812615 3.8337775,19.812615 c -0.1012109,0 -0.2380282,-0.142053 -0.3040384,-0.315673 -0.06601,-0.17362 -0.2078747,-0.315673 -0.3152545,-0.315673 -0.1073797,0 -0.2571045,-0.135787 -0.3327219,-0.301749 C 2.8061455,18.713558 2.60849,18.515903 2.4425281,18.440286 2.2765663,18.364668 2.1407794,18.22547 2.1407794,18.130957 c 0,-0.09451 -0.1371243,-0.23432 -0.3047208,-0.310683 C 1.6684622,17.743913 1.4961171,17.570464 1.4530695,17.434833 1.4100219,17.299202 1.2556608,17.157075 1.110045,17.118996 0.92746113,17.071249 0.86997393,16.985432 0.9248233,16.842497 c 0.0437439,-0.113996 0.0795344,-0.281221 0.0795344,-0.371614 0,-0.09039 0.117859,-0.19517 0.2619089,-0.23284 0.1440499,-0.03767 0.291356,-0.181096 0.3273468,-0.318725 0.035991,-0.137629 0.1780435,-0.279682 0.3156727,-0.315672 0.1376291,-0.03599 0.2812181,-0.183919 0.3190866,-0.328728 0.037869,-0.14481 0.204115,-0.297239 0.3694365,-0.338732 0.1857862,-0.04663 0.3005846,-0.167857 0.3005846,-0.317417 0,-0.144327 0.1323195,-0.292283 0.3278914,-0.366639 0.1803404,-0.06856 0.356057,-0.232369 0.3904813,-0.364008 0.034424,-0.131639 0.1751955,-0.268791 0.3128247,-0.304781 0.1376291,-0.03599 0.2797971,-0.178485 0.3159289,-0.316653 0.036132,-0.138168 0.1984385,-0.284531 0.3606816,-0.325252 0.1795514,-0.04506 0.3107665,-0.184628 0.3353096,-0.356644 0.02332,-0.163444 0.1468064,-0.302621 0.2928602,-0.330072 0.138896,-0.02611 0.2848022,-0.09852 0.324236,-0.160924 0.1029606,-0.162932 0.8753202,0.25205 0.8753202,0.470302 0,0.100575 0.1372369,0.245392 0.3049709,0.321817 0.1677339,0.07642 0.3339803,0.249886 0.3694364,0.385471 0.035456,0.135584 0.1770712,0.275964 0.3147004,0.311955 0.1376292,0.03599 0.2784001,0.173142 0.3128246,0.304781 0.034424,0.131639 0.2101409,0.295443 0.3904813,0.364008 0.1803403,0.06857 0.3278915,0.212708 0.3278915,0.320318 0,0.10761 0.1342855,0.24671 0.2984123,0.309111 0.1641268,0.0624 0.3303733,0.235674 0.3694365,0.385052 0.039063,0.149378 0.1836297,0.301044 0.3212589,0.337035 0.1376292,0.03599 0.2796819,0.178043 0.3156726,0.315672 0.035991,0.137629 0.1814151,0.280564 0.3231649,0.317632 0.14175,0.03707 0.292881,0.178159 0.335848,0.313535 0.04297,0.135377 0.215312,0.298298 0.382989,0.362049 0.167678,0.06375 0.304868,0.203954 0.304868,0.311565 0,0.532672 1.571209,0.516987 1.774502,-0.01772 0.06231,-0.163876 0.201328,-0.297957 0.308938,-0.297957 0.10761,0 0.247814,-0.13719 0.311565,-0.304868 0.06375,-0.167678 0.229901,-0.341048 0.369222,-0.385266 0.139323,-0.04422 0.289492,-0.194389 0.333712,-0.333711 0.04422,-0.139322 0.217588,-0.305472 0.385265,-0.369223 0.167678,-0.06375 0.304868,-0.203955 0.304868,-0.311564 0,-0.10761 0.142053,-0.249663 0.315673,-0.315673 0.17362,-0.06601 0.315673,-0.207875 0.315673,-0.315255 0,-0.107379 0.14096,-0.259461 0.313245,-0.33796 0.172286,-0.0785 0.343841,-0.23912 0.381235,-0.356938 0.03739,-0.117817 0.208948,-0.278439 0.381234,-0.356938 0.172285,-0.0785 0.313245,-0.23058 0.313245,-0.33796 0,-0.107379 0.142053,-0.249244 0.315673,-0.315254 0.17362,-0.06601 0.315673,-0.208063 0.315673,-0.315673 0,-0.10761 0.142052,-0.249662 0.315672,-0.315673 0.17362,-0.06601 0.315673,-0.207874 0.315673,-0.315254 0,-0.10738 0.140961,-0.259462 0.313246,-0.33796 0.172285,-0.0785 0.343841,-0.239121 0.381234,-0.356938 0.03739,-0.117818 0.208949,-0.27844 0.381234,-0.356938 0.172285,-0.0785 0.313246,-0.23058 0.313246,-0.33796 0,-0.10738 0.142053,-0.249244 0.315673,-0.315255 0.173619,-0.06601 0.315672,-0.207874 0.315672,-0.3152541 0,-0.1073797 0.140961,-0.2594619 0.313246,-0.3379602 0.172285,-0.078498 0.345654,-0.2448369 0.385266,-0.3696411 0.03961,-0.1248043 0.186011,-0.2630962 0.325333,-0.3073152 0.139322,-0.044219 0.305472,-0.2175888 0.369222,-0.3852662 0.06375,-0.1676774 0.203955,-0.304868 0.311566,-0.304868 0.10761,0 0.249663,-0.1420527 0.315672,-0.3156726 0.06601,-0.17362 0.208063,-0.3156727 0.315673,-0.3156727 0.10761,0 0.249663,-0.1420527 0.315673,-0.3156727 0.06601,-0.1736199 0.207874,-0.3156726 0.315254,-0.3156726 0.10738,0 0.257104,-0.135787 0.332722,-0.3017488 0.07562,-0.1659619 0.273273,-0.3636174 0.439234,-0.4392346 0.165962,-0.075617 0.301749,-0.2253422 0.301749,-0.3327219 0,-0.1073798 0.142053,-0.2492443 0.315673,-0.3152545 0.17362,-0.06601 0.315673,-0.2080629 0.315673,-0.3156727 0,-0.1076098 0.13719,-0.2478139 0.304868,-0.3115647 0.167677,-0.063751 0.341047,-0.2299012 0.385265,-0.369223 0.04422,-0.1393218 0.188228,-0.287536 0.320019,-0.3293648 0.131791,-0.041829 0.278081,-0.1972338 0.32509,-0.3453443 0.08279,-0.2608505 0.09104,-0.2586691 0.26303,0.069593 0.09766,0.1863869 0.262383,0.3388853 0.366057,0.3388853 0.103673,0 0.242504,0.1420527 0.308514,0.3156727 0.06601,0.1736199 0.208062,0.3156727 0.315673,0.3156727 0.10761,0 0.249663,0.1420527 0.315672,0.3156726 0.07348,0.1932624 0.219159,0.3156727 0.375682,0.3156727 0.172388,0 0.255664,0.083139 0.255664,0.2552452 0,0.1465867 0.128454,0.3137733 0.301749,0.3927312 0.165961,0.075617 0.363617,0.2732727 0.439234,0.4392346 0.07562,0.1659618 0.225342,0.3017488 0.332722,0.3017488 0.10738,0 0.249245,0.1420527 0.315254,0.3156726 0.07348,0.1932624 0.219159,0.3156727 0.375682,0.3156727 0.172526,0 0.255664,0.083138 0.255664,0.2556634 0,0.1565233 0.12241,0.3022037 0.315672,0.3756819 0.415831,0.1580988 0.454284,0.8181821 0.05377,0.9229204 -0.144051,0.03767 -0.290919,0.1794233 -0.326376,0.3150076 -0.03546,0.1355843 -0.201702,0.3090462 -0.369435,0.3854709 -0.167735,0.076425 -0.304972,0.2268094 -0.304972,0.3341894 0,0.10738 -0.13719,0.247396 -0.304867,0.311147 -0.167678,0.06375 -0.340023,0.226672 -0.38299,0.362048 -0.04297,0.135376 -0.194098,0.276467 -0.335848,0.313535 -0.141749,0.03707 -0.286736,0.17833 -0.322193,0.313914 -0.03546,0.135585 -0.201702,0.309046 -0.369435,0.385471 -0.167735,0.07643 -0.304972,0.22681 -0.304972,0.33419 0,0.10738 -0.142052,0.249244 -0.315672,0.315255 -0.17362,0.06601 -0.315673,0.208062 -0.315673,0.315672 0,0.10761 -0.13719,0.247814 -0.304868,0.311565 -0.167678,0.06375 -0.340022,0.226673 -0.382989,0.362049 -0.04297,0.135376 -0.194098,0.276466 -0.335848,0.313535 -0.14175,0.03707 -0.286737,0.178329 -0.322193,0.313914 -0.03546,0.135584 -0.201702,0.309046 -0.369436,0.385471 -0.167734,0.07642 -0.304971,0.226811 -0.304971,0.33419 0,0.107379 -0.13719,0.247395 -0.304868,0.311147 -0.167678,0.06375 -0.341969,0.232808 -0.387316,0.375681 -0.04535,0.142875 -0.165069,0.259772 -0.266051,0.259772 -0.10098,0 -0.24613,0.137237 -0.322555,0.30497 -0.07643,0.167734 -0.249887,0.333981 -0.385471,0.369436 -0.135584,0.03546 -0.275526,0.175399 -0.310983,0.310983 -0.03545,0.135584 -0.201702,0.309046 -0.369435,0.385471 -0.167735,0.07643 -0.304972,0.226811 -0.304972,0.33419 0,0.10738 -0.13719,0.247396 -0.304867,0.311147 -0.167678,0.06375 -0.340023,0.226672 -0.38299,0.362049 -0.04297,0.135375 -0.194098,0.276466 -0.335848,0.313535 -0.141749,0.03707 -0.286736,0.178329 -0.322193,0.313913 -0.03545,0.135584 -0.201702,0.309046 -0.369435,0.385471 -0.167735,0.07643 -0.304972,0.226811 -0.304972,0.33419 0,0.10738 -0.142052,0.249245 -0.315672,0.315255 -0.17362,0.06601 -0.315673,0.208062 -0.315673,0.315672 0,0.107611 -0.147552,0.251753 -0.327892,0.320318 -0.18034,0.06857 -0.356057,0.23237 -0.390481,0.364009 -0.03442,0.131638 -0.175195,0.26879 -0.312825,0.304781 -0.137628,0.03599 -0.280563,0.181415 -0.317631,0.323165 -0.03707,0.14175 -0.178159,0.292881 -0.313535,0.335848 -0.135377,0.04297 -0.298298,0.215311 -0.362049,0.382989 -0.06375,0.167678 -0.203766,0.304868 -0.311147,0.304868 -0.107379,0 -0.257764,0.137237 -0.33419,0.304971 -0.07642,0.167734 -0.249886,0.333981 -0.38547,0.369436 -0.135584,0.03546 -0.275527,0.175399 -0.310983,0.310983 -0.03545,0.135584 -0.201703,0.309046 -0.369436,0.38547 -0.167734,0.07643 -0.304971,0.226811 -0.304971,0.33419 0,0.107381 -0.13719,0.247397 -0.304868,0.311148 -0.167678,0.06375 -0.34197,0.232807 -0.387317,0.375682 -0.04534,0.142873 -0.165069,0.25977 -0.26605,0.25977 -0.10098,0 -0.24613,0.137237 -0.322555,0.304972 -0.07643,0.167733 -0.249887,0.33398 -0.385471,0.369435 -0.135584,0.03546 -0.275526,0.175399 -0.310983,0.310983 -0.03545,0.135584 -0.201702,0.309046 -0.369435,0.385471 -0.167735,0.07643 -0.304972,0.226811 -0.304972,0.33419 0,0.10738 -0.13719,0.247396 -0.304868,0.311147 -0.167677,0.06375 -0.341969,0.232807 -0.387316,0.375682 -0.111402,0.350998 -0.818228,0.368597 -0.908702,0.02262 z"
       id="path835"
       inkscape:connector-curvature="0"
       transform="matrix(0.26458333,0,0,0.26458333,59.26667,69.760727)" />
  </g>
</svg>
